<svg width="32" height="32" viewBox="0 0 32 32" fill="none" xmlns="http://www.w3.org/2000/svg">
<rect width="32" height="32" fill="#595653"/>
<mask id="path-2-outside-1_549_14" maskUnits="userSpaceOnUse" x="8" y="5" width="17" height="23" fill="black">
<rect fill="white" x="8" y="5" width="17" height="23"/>
<path d="M23.4191 25.9567H23.0292C23.0292 25.9527 23.0273 25.9487 23.0265 25.9449L23.0158 25.8985C23.009 25.868 23.0016 25.8378 22.9939 25.8078C22.9906 25.7937 22.9871 25.7795 22.9835 25.7654C22.9734 25.7259 22.9627 25.6863 22.9518 25.6467L22.9485 25.6354C22.9365 25.5925 22.9239 25.5499 22.9108 25.5073L22.8977 25.4663C22.8886 25.437 22.8791 25.408 22.8703 25.3791C22.8651 25.3632 22.8597 25.3476 22.8545 25.3319C22.8449 25.304 22.8351 25.276 22.8249 25.2483C22.8197 25.2336 22.8143 25.2188 22.8091 25.2044C22.7963 25.1696 22.7832 25.1351 22.7697 25.1008C22.7667 25.0935 22.7642 25.0865 22.7612 25.0791C22.7454 25.0388 22.7287 24.9987 22.7117 24.9587C22.7057 24.9441 22.6994 24.9297 22.6931 24.9153C22.6817 24.8901 22.6702 24.8624 22.6584 24.8362L22.6363 24.7875C22.6248 24.7623 22.613 24.7371 22.601 24.7119C22.5936 24.6963 22.586 24.6804 22.5783 24.6648C22.5644 24.6358 22.551 24.6071 22.5354 24.5786C22.5296 24.5678 22.5244 24.5567 22.5187 24.5456C22.4993 24.508 22.4793 24.47 22.4591 24.4337L22.4317 24.3866L22.3932 24.3183L22.3631 24.2679C22.3505 24.2467 22.3379 24.2255 22.3251 24.2043C22.315 24.1872 22.3046 24.1701 22.2942 24.1539C22.28 24.131 22.2669 24.1086 22.2513 24.0859L22.2119 24.0244C22.1933 23.9962 22.1747 23.9677 22.1556 23.9397C22.1435 23.9221 22.1315 23.9047 22.1192 23.8873C22.1069 23.8699 22.0935 23.85 22.0804 23.8316C22.0672 23.8132 22.053 23.7948 22.041 23.7766C22.029 23.7585 22.0158 23.7421 22.003 23.7262C21.9901 23.7104 21.9756 23.6892 21.9617 23.6708L21.9231 23.6204C21.8958 23.5869 21.8706 23.5533 21.8438 23.5196L21.8064 23.4735C21.7905 23.454 21.7741 23.4349 21.758 23.4157L21.7219 23.3734C21.7052 23.354 21.6883 23.3348 21.6713 23.3154L21.6358 23.2756L21.5827 23.2171L21.5513 23.1834C21.4859 23.1135 21.4189 23.0447 21.3503 22.9777L21.3202 22.9482L21.2573 22.8885L21.2264 22.8598C21.2046 22.8393 21.1827 22.8192 21.1605 22.7993L21.1378 22.7791C21.0605 22.7098 20.9809 22.6423 20.8999 22.5775L20.8778 22.5596C20.8528 22.5394 20.8277 22.5195 20.8023 22.4999L20.7772 22.4802C20.7498 22.46 20.7249 22.4401 20.6984 22.4202L20.685 22.4104C20.5956 22.3438 20.504 22.2791 20.4116 22.2168L20.3987 22.208C20.3695 22.1886 20.3402 22.1694 20.3107 22.1505L20.2913 22.1382C20.2612 22.1188 20.2308 22.0999 20.2005 22.081L20.1953 22.078C20.0947 22.016 19.9921 21.9566 19.8877 21.8998L19.8836 21.8972C19.8505 21.8794 19.8174 21.862 19.7843 21.8446L19.7698 21.837C19.5937 21.7454 19.4129 21.6614 19.2273 21.585L19.2159 21.5802C19.1669 21.56 19.1177 21.5406 19.0679 21.5215H20.0466C20.206 21.5215 20.3353 21.3524 20.3353 21.1434C20.3353 20.9345 20.206 20.7654 20.0466 20.7654H19.7551C19.7731 20.723 19.7931 20.6751 19.8147 20.6212C20.0903 20.4629 20.5754 20.1257 21.0566 19.5062L21.0605 19.5014C21.0969 19.4551 21.1327 19.4071 21.1679 19.3575L21.175 19.3477C21.21 19.2991 21.245 19.2489 21.2795 19.1965L21.2888 19.1826C21.3052 19.1574 21.3216 19.1322 21.338 19.107C21.338 19.107 21.338 19.105 21.3399 19.1037C21.3569 19.0785 21.3735 19.0508 21.3902 19.0238L21.4009 19.0064C21.4151 18.9833 21.4296 18.9596 21.4435 18.9356C21.4463 18.9313 21.449 18.9271 21.4515 18.9225C21.4676 18.8953 21.4837 18.8676 21.4996 18.8396L21.5105 18.8202C21.5237 18.797 21.5365 18.7736 21.5494 18.7499C21.5532 18.7433 21.557 18.7365 21.5606 18.7297C21.5759 18.7012 21.5912 18.6725 21.6065 18.6433L21.6172 18.6229C21.6292 18.5992 21.6415 18.575 21.6535 18.5508L21.6667 18.5256C21.6814 18.4958 21.6959 18.4656 21.7104 18.4351L21.7194 18.4157C21.7315 18.3905 21.7432 18.3653 21.755 18.3401L21.7689 18.3098C21.7826 18.2793 21.7963 18.2486 21.8094 18.2176C21.8119 18.212 21.8143 18.2062 21.8165 18.2007C21.8288 18.1722 21.8408 18.1432 21.8529 18.114L21.8665 18.0807C21.8778 18.053 21.889 18.025 21.8999 17.9971L21.9081 17.9759C21.921 17.9426 21.9335 17.9086 21.9461 17.8751L21.9592 17.8393C21.9691 17.8126 21.9787 17.7854 21.9882 17.7581C21.9918 17.7481 21.9953 17.738 21.9986 17.7279C22.0106 17.6931 22.0227 17.6576 22.0344 17.622C22.0383 17.6097 22.0424 17.5968 22.0462 17.5852L22.0735 17.5023C22.0771 17.4902 22.0809 17.4771 22.0845 17.4663C22.0957 17.4297 22.1069 17.3924 22.1176 17.3549C22.1211 17.343 22.1244 17.3309 22.1277 17.3188C22.1359 17.2899 22.1441 17.2609 22.152 17.2314C22.1556 17.218 22.1591 17.2047 22.1629 17.1913C22.1731 17.1525 22.1832 17.1134 22.193 17.0739L22.2012 17.0409C22.2089 17.0094 22.2165 16.9776 22.2239 16.9456L22.2338 16.9027C22.2431 16.8617 22.2524 16.8206 22.2611 16.7787C22.263 16.7707 22.2647 16.7624 22.2663 16.7535C22.274 16.7175 22.2813 16.681 22.2885 16.6444C22.2915 16.6295 22.2942 16.6147 22.2972 16.5998C22.3043 16.5622 22.3112 16.5242 22.318 16.4866C22.3194 16.4786 22.321 16.4708 22.3224 16.4629C22.33 16.4186 22.3375 16.3739 22.3448 16.3289C22.3472 16.3137 22.3497 16.2986 22.3519 16.2833C22.3576 16.2467 22.3631 16.2099 22.3686 16.1726L22.3735 16.1383C22.3801 16.092 22.3863 16.0453 22.3924 15.9979C22.3943 15.9831 22.3959 15.9682 22.3978 15.9531C22.4026 15.9155 22.4069 15.8776 22.411 15.8397C22.4126 15.8261 22.4142 15.8127 22.4156 15.7991C22.4209 15.7504 22.4258 15.7012 22.4304 15.6517C22.4304 15.6378 22.4328 15.6239 22.4339 15.6098C22.4375 15.57 22.441 15.5299 22.444 15.4896C22.444 15.4747 22.4465 15.4599 22.4476 15.445C22.4514 15.3936 22.455 15.3418 22.4583 15.2897C22.4583 15.2779 22.4583 15.2645 22.4602 15.254C22.4626 15.2106 22.4651 15.167 22.467 15.1231C22.467 15.1073 22.467 15.0914 22.4692 15.0755C22.4714 15.0213 22.4736 14.9669 22.4752 14.9117C22.4752 14.9041 22.4752 14.8963 22.4752 14.8885C22.4767 14.8394 22.4778 14.7899 22.4785 14.7398C22.4785 14.7234 22.4785 14.707 22.4785 14.6907C22.4785 14.6369 22.4785 14.5828 22.4785 14.5284V14.5158C22.4785 14.4578 22.4785 14.3991 22.4785 14.3393V14.2889C22.4785 14.2385 22.4763 14.1856 22.4749 14.1332V14.1047C22.473 14.0442 22.4706 13.983 22.4681 13.9215C22.4681 13.9056 22.4665 13.8895 22.4659 13.8736C22.4635 13.8218 22.4608 13.7697 22.4577 13.7173C22.4577 13.7045 22.4577 13.6921 22.4555 13.6783C22.4517 13.6152 22.4475 13.5517 22.4429 13.4877L22.4397 13.4431C22.4356 13.3897 22.4315 13.336 22.4268 13.2818C22.4268 13.2662 22.4244 13.2506 22.423 13.2349C22.4172 13.1694 22.411 13.1031 22.4044 13.0366C22.4044 13.024 22.4017 13.0114 22.4006 12.9985C22.3948 12.9418 22.3885 12.8846 22.3822 12.8269C22.3803 12.8095 22.3784 12.7924 22.3762 12.775C22.3686 12.7064 22.3604 12.6376 22.3516 12.5678C22.3516 12.5592 22.3492 12.5507 22.3481 12.5426C22.3402 12.4801 22.3319 12.4173 22.3232 12.3541C22.3204 12.3354 22.318 12.3168 22.3152 12.2981C22.305 12.2266 22.2946 12.1544 22.2838 12.0816C21.1901 4.9053 13.4392 6.06993 13.4392 6.06993L13.6875 7.61186L9 12.1761L9.2048 13.9386L10.9805 14.9467C11.0597 14.7613 11.1613 14.5847 11.2835 14.4202C12.4292 13.2022 14.6519 12.246 15.2882 12.0476C15.4156 12.008 15.4881 11.9881 15.4881 11.9881C12.4445 15.6189 12.7906 19.7784 12.9263 20.7699C12.7852 20.7951 12.6761 20.9521 12.6761 21.1437C12.6761 21.3524 12.8054 21.5217 12.9648 21.5217H13.9435C12.3159 22.1497 11.0239 23.3457 10.3497 24.8485C10.3489 24.8506 10.348 24.8526 10.3469 24.8546C10.2972 24.9661 10.2509 25.0793 10.208 25.1941C10.2081 25.1952 10.2081 25.1964 10.208 25.1976C10.1966 25.2288 10.1853 25.2601 10.1744 25.2916C10.1703 25.3029 10.1662 25.3143 10.1624 25.3259C10.1525 25.3541 10.1434 25.3826 10.135 25.4113C10.1301 25.4259 10.1255 25.4408 10.1208 25.4554C10.1121 25.4824 10.1036 25.5096 10.0954 25.5368L10.0806 25.5872C10.073 25.6124 10.0653 25.6394 10.0582 25.6656C10.053 25.6843 10.0481 25.7027 10.0432 25.7213C10.0366 25.7465 10.0298 25.7717 10.0235 25.7969C10.0172 25.8221 10.0112 25.8473 10.0052 25.874C9.99914 25.9008 9.99148 25.932 9.98492 25.9613H9.59472C9.51969 25.9597 9.44508 25.972 9.37528 25.9974C9.30548 26.0229 9.24189 26.0609 9.18823 26.1092C9.13458 26.1576 9.09195 26.2154 9.06285 26.2791C9.03375 26.3429 9.01876 26.4114 9.01876 26.4806C9.01876 26.5497 9.03375 26.6182 9.06285 26.682C9.09195 26.7457 9.13458 26.8035 9.18823 26.8519C9.24189 26.9003 9.30548 26.9383 9.37528 26.9637C9.44508 26.9891 9.51969 27.0014 9.59472 26.9999H23.424C23.4991 27.0014 23.5737 26.9891 23.6435 26.9637C23.7133 26.9383 23.7769 26.9003 23.8305 26.8519C23.8842 26.8035 23.9268 26.7457 23.9559 26.682C23.985 26.6182 24 26.5497 24 26.4806C24 26.4114 23.985 26.3429 23.9559 26.2791C23.9268 26.2154 23.8842 26.1576 23.8305 26.1092C23.7769 26.0609 23.7133 26.0229 23.6435 25.9974C23.5737 25.972 23.4991 25.9597 23.424 25.9613L23.4191 25.9567Z"/>
</mask>
<path d="M23.4191 25.9567H23.0292C23.0292 25.9527 23.0273 25.9487 23.0265 25.9449L23.0158 25.8985C23.009 25.868 23.0016 25.8378 22.9939 25.8078C22.9906 25.7937 22.9871 25.7795 22.9835 25.7654C22.9734 25.7259 22.9627 25.6863 22.9518 25.6467L22.9485 25.6354C22.9365 25.5925 22.9239 25.5499 22.9108 25.5073L22.8977 25.4663C22.8886 25.437 22.8791 25.408 22.8703 25.3791C22.8651 25.3632 22.8597 25.3476 22.8545 25.3319C22.8449 25.304 22.8351 25.276 22.8249 25.2483C22.8197 25.2336 22.8143 25.2188 22.8091 25.2044C22.7963 25.1696 22.7832 25.1351 22.7697 25.1008C22.7667 25.0935 22.7642 25.0865 22.7612 25.0791C22.7454 25.0388 22.7287 24.9987 22.7117 24.9587C22.7057 24.9441 22.6994 24.9297 22.6931 24.9153C22.6817 24.8901 22.6702 24.8624 22.6584 24.8362L22.6363 24.7875C22.6248 24.7623 22.613 24.7371 22.601 24.7119C22.5936 24.6963 22.586 24.6804 22.5783 24.6648C22.5644 24.6358 22.551 24.6071 22.5354 24.5786C22.5296 24.5678 22.5244 24.5567 22.5187 24.5456C22.4993 24.508 22.4793 24.47 22.4591 24.4337L22.4317 24.3866L22.3932 24.3183L22.3631 24.2679C22.3505 24.2467 22.3379 24.2255 22.3251 24.2043C22.315 24.1872 22.3046 24.1701 22.2942 24.1539C22.28 24.131 22.2669 24.1086 22.2513 24.0859L22.2119 24.0244C22.1933 23.9962 22.1747 23.9677 22.1556 23.9397C22.1435 23.9221 22.1315 23.9047 22.1192 23.8873C22.1069 23.8699 22.0935 23.85 22.0804 23.8316C22.0672 23.8132 22.053 23.7948 22.041 23.7766C22.029 23.7585 22.0158 23.7421 22.003 23.7262C21.9901 23.7104 21.9756 23.6892 21.9617 23.6708L21.9231 23.6204C21.8958 23.5869 21.8706 23.5533 21.8438 23.5196L21.8064 23.4735C21.7905 23.454 21.7741 23.4349 21.758 23.4157L21.7219 23.3734C21.7052 23.354 21.6883 23.3348 21.6713 23.3154L21.6358 23.2756L21.5827 23.2171L21.5513 23.1834C21.4859 23.1135 21.4189 23.0447 21.3503 22.9777L21.3202 22.9482L21.2573 22.8885L21.2264 22.8598C21.2046 22.8393 21.1827 22.8192 21.1605 22.7993L21.1378 22.7791C21.0605 22.7098 20.9809 22.6423 20.8999 22.5775L20.8778 22.5596C20.8528 22.5394 20.8277 22.5195 20.8023 22.4999L20.7772 22.4802C20.7498 22.46 20.7249 22.4401 20.6984 22.4202L20.685 22.4104C20.5956 22.3438 20.504 22.2791 20.4116 22.2168L20.3987 22.208C20.3695 22.1886 20.3402 22.1694 20.3107 22.1505L20.2913 22.1382C20.2612 22.1188 20.2308 22.0999 20.2005 22.081L20.1953 22.078C20.0947 22.016 19.9921 21.9566 19.8877 21.8998L19.8836 21.8972C19.8505 21.8794 19.8174 21.862 19.7843 21.8446L19.7698 21.837C19.5937 21.7454 19.4129 21.6614 19.2273 21.585L19.2159 21.5802C19.1669 21.56 19.1177 21.5406 19.0679 21.5215H20.0466C20.206 21.5215 20.3353 21.3524 20.3353 21.1434C20.3353 20.9345 20.206 20.7654 20.0466 20.7654H19.7551C19.7731 20.723 19.7931 20.6751 19.8147 20.6212C20.0903 20.4629 20.5754 20.1257 21.0566 19.5062L21.0605 19.5014C21.0969 19.4551 21.1327 19.4071 21.1679 19.3575L21.175 19.3477C21.21 19.2991 21.245 19.2489 21.2795 19.1965L21.2888 19.1826C21.3052 19.1574 21.3216 19.1322 21.338 19.107C21.338 19.107 21.338 19.105 21.3399 19.1037C21.3569 19.0785 21.3735 19.0508 21.3902 19.0238L21.4009 19.0064C21.4151 18.9833 21.4296 18.9596 21.4435 18.9356C21.4463 18.9313 21.449 18.9271 21.4515 18.9225C21.4676 18.8953 21.4837 18.8676 21.4996 18.8396L21.5105 18.8202C21.5237 18.797 21.5365 18.7736 21.5494 18.7499C21.5532 18.7433 21.557 18.7365 21.5606 18.7297C21.5759 18.7012 21.5912 18.6725 21.6065 18.6433L21.6172 18.6229C21.6292 18.5992 21.6415 18.575 21.6535 18.5508L21.6667 18.5256C21.6814 18.4958 21.6959 18.4656 21.7104 18.4351L21.7194 18.4157C21.7315 18.3905 21.7432 18.3653 21.755 18.3401L21.7689 18.3098C21.7826 18.2793 21.7963 18.2486 21.8094 18.2176C21.8119 18.212 21.8143 18.2062 21.8165 18.2007C21.8288 18.1722 21.8408 18.1432 21.8529 18.114L21.8665 18.0807C21.8778 18.053 21.889 18.025 21.8999 17.9971L21.9081 17.9759C21.921 17.9426 21.9335 17.9086 21.9461 17.8751L21.9592 17.8393C21.9691 17.8126 21.9787 17.7854 21.9882 17.7581C21.9918 17.7481 21.9953 17.738 21.9986 17.7279C22.0106 17.6931 22.0227 17.6576 22.0344 17.622C22.0383 17.6097 22.0424 17.5968 22.0462 17.5852L22.0735 17.5023C22.0771 17.4902 22.0809 17.4771 22.0845 17.4663C22.0957 17.4297 22.1069 17.3924 22.1176 17.3549C22.1211 17.343 22.1244 17.3309 22.1277 17.3188C22.1359 17.2899 22.1441 17.2609 22.152 17.2314C22.1556 17.218 22.1591 17.2047 22.1629 17.1913C22.1731 17.1525 22.1832 17.1134 22.193 17.0739L22.2012 17.0409C22.2089 17.0094 22.2165 16.9776 22.2239 16.9456L22.2338 16.9027C22.2431 16.8617 22.2524 16.8206 22.2611 16.7787C22.263 16.7707 22.2647 16.7624 22.2663 16.7535C22.274 16.7175 22.2813 16.681 22.2885 16.6444C22.2915 16.6295 22.2942 16.6147 22.2972 16.5998C22.3043 16.5622 22.3112 16.5242 22.318 16.4866C22.3194 16.4786 22.321 16.4708 22.3224 16.4629C22.33 16.4186 22.3375 16.3739 22.3448 16.3289C22.3472 16.3137 22.3497 16.2986 22.3519 16.2833C22.3576 16.2467 22.3631 16.2099 22.3686 16.1726L22.3735 16.1383C22.3801 16.092 22.3863 16.0453 22.3924 15.9979C22.3943 15.9831 22.3959 15.9682 22.3978 15.9531C22.4026 15.9155 22.4069 15.8776 22.411 15.8397C22.4126 15.8261 22.4142 15.8127 22.4156 15.7991C22.4209 15.7504 22.4258 15.7012 22.4304 15.6517C22.4304 15.6378 22.4328 15.6239 22.4339 15.6098C22.4375 15.57 22.441 15.5299 22.444 15.4896C22.444 15.4747 22.4465 15.4599 22.4476 15.445C22.4514 15.3936 22.455 15.3418 22.4583 15.2897C22.4583 15.2779 22.4583 15.2645 22.4602 15.254C22.4626 15.2106 22.4651 15.167 22.467 15.1231C22.467 15.1073 22.467 15.0914 22.4692 15.0755C22.4714 15.0213 22.4736 14.9669 22.4752 14.9117C22.4752 14.9041 22.4752 14.8963 22.4752 14.8885C22.4767 14.8394 22.4778 14.7899 22.4785 14.7398C22.4785 14.7234 22.4785 14.707 22.4785 14.6907C22.4785 14.6369 22.4785 14.5828 22.4785 14.5284V14.5158C22.4785 14.4578 22.4785 14.3991 22.4785 14.3393V14.2889C22.4785 14.2385 22.4763 14.1856 22.4749 14.1332V14.1047C22.473 14.0442 22.4706 13.983 22.4681 13.9215C22.4681 13.9056 22.4665 13.8895 22.4659 13.8736C22.4635 13.8218 22.4608 13.7697 22.4577 13.7173C22.4577 13.7045 22.4577 13.6921 22.4555 13.6783C22.4517 13.6152 22.4475 13.5517 22.4429 13.4877L22.4397 13.4431C22.4356 13.3897 22.4315 13.336 22.4268 13.2818C22.4268 13.2662 22.4244 13.2506 22.423 13.2349C22.4172 13.1694 22.411 13.1031 22.4044 13.0366C22.4044 13.024 22.4017 13.0114 22.4006 12.9985C22.3948 12.9418 22.3885 12.8846 22.3822 12.8269C22.3803 12.8095 22.3784 12.7924 22.3762 12.775C22.3686 12.7064 22.3604 12.6376 22.3516 12.5678C22.3516 12.5592 22.3492 12.5507 22.3481 12.5426C22.3402 12.4801 22.3319 12.4173 22.3232 12.3541C22.3204 12.3354 22.318 12.3168 22.3152 12.2981C22.305 12.2266 22.2946 12.1544 22.2838 12.0816C21.1901 4.9053 13.4392 6.06993 13.4392 6.06993L13.6875 7.61186L9 12.1761L9.2048 13.9386L10.9805 14.9467C11.0597 14.7613 11.1613 14.5847 11.2835 14.4202C12.4292 13.2022 14.6519 12.246 15.2882 12.0476C15.4156 12.008 15.4881 11.9881 15.4881 11.9881C12.4445 15.6189 12.7906 19.7784 12.9263 20.7699C12.7852 20.7951 12.6761 20.9521 12.6761 21.1437C12.6761 21.3524 12.8054 21.5217 12.9648 21.5217H13.9435C12.3159 22.1497 11.0239 23.3457 10.3497 24.8485C10.3489 24.8506 10.348 24.8526 10.3469 24.8546C10.2972 24.9661 10.2509 25.0793 10.208 25.1941C10.2081 25.1952 10.2081 25.1964 10.208 25.1976C10.1966 25.2288 10.1853 25.2601 10.1744 25.2916C10.1703 25.3029 10.1662 25.3143 10.1624 25.3259C10.1525 25.3541 10.1434 25.3826 10.135 25.4113C10.1301 25.4259 10.1255 25.4408 10.1208 25.4554C10.1121 25.4824 10.1036 25.5096 10.0954 25.5368L10.0806 25.5872C10.073 25.6124 10.0653 25.6394 10.0582 25.6656C10.053 25.6843 10.0481 25.7027 10.0432 25.7213C10.0366 25.7465 10.0298 25.7717 10.0235 25.7969C10.0172 25.8221 10.0112 25.8473 10.0052 25.874C9.99914 25.9008 9.99148 25.932 9.98492 25.9613H9.59472C9.51969 25.9597 9.44508 25.972 9.37528 25.9974C9.30548 26.0229 9.24189 26.0609 9.18823 26.1092C9.13458 26.1576 9.09195 26.2154 9.06285 26.2791C9.03375 26.3429 9.01876 26.4114 9.01876 26.4806C9.01876 26.5497 9.03375 26.6182 9.06285 26.682C9.09195 26.7457 9.13458 26.8035 9.18823 26.8519C9.24189 26.9003 9.30548 26.9383 9.37528 26.9637C9.44508 26.9891 9.51969 27.0014 9.59472 26.9999H23.424C23.4991 27.0014 23.5737 26.9891 23.6435 26.9637C23.7133 26.9383 23.7769 26.9003 23.8305 26.8519C23.8842 26.8035 23.9268 26.7457 23.9559 26.682C23.985 26.6182 24 26.5497 24 26.4806C24 26.4114 23.985 26.3429 23.9559 26.2791C23.9268 26.2154 23.8842 26.1576 23.8305 26.1092C23.7769 26.0609 23.7133 26.0229 23.6435 25.9974C23.5737 25.972 23.4991 25.9597 23.424 25.9613L23.4191 25.9567Z" fill="#595653"/>
<path d="M23.4191 25.9567H23.0292C23.0292 25.9527 23.0273 25.9487 23.0265 25.9449L23.0158 25.8985C23.009 25.868 23.0016 25.8378 22.9939 25.8078C22.9906 25.7937 22.9871 25.7795 22.9835 25.7654C22.9734 25.7259 22.9627 25.6863 22.9518 25.6467L22.9485 25.6354C22.9365 25.5925 22.9239 25.5499 22.9108 25.5073L22.8977 25.4663C22.8886 25.437 22.8791 25.408 22.8703 25.3791C22.8651 25.3632 22.8597 25.3476 22.8545 25.3319C22.8449 25.304 22.8351 25.276 22.8249 25.2483C22.8197 25.2336 22.8143 25.2188 22.8091 25.2044C22.7963 25.1696 22.7832 25.1351 22.7697 25.1008C22.7667 25.0935 22.7642 25.0865 22.7612 25.0791C22.7454 25.0388 22.7287 24.9987 22.7117 24.9587C22.7057 24.9441 22.6994 24.9297 22.6931 24.9153C22.6817 24.8901 22.6702 24.8624 22.6584 24.8362L22.6363 24.7875C22.6248 24.7623 22.613 24.7371 22.601 24.7119C22.5936 24.6963 22.586 24.6804 22.5783 24.6648C22.5644 24.6358 22.551 24.6071 22.5354 24.5786C22.5296 24.5678 22.5244 24.5567 22.5187 24.5456C22.4993 24.508 22.4793 24.47 22.4591 24.4337L22.4317 24.3866L22.3932 24.3183L22.3631 24.2679C22.3505 24.2467 22.3379 24.2255 22.3251 24.2043C22.315 24.1872 22.3046 24.1701 22.2942 24.1539C22.28 24.131 22.2669 24.1086 22.2513 24.0859L22.2119 24.0244C22.1933 23.9962 22.1747 23.9677 22.1556 23.9397C22.1435 23.9221 22.1315 23.9047 22.1192 23.8873C22.1069 23.8699 22.0935 23.85 22.0804 23.8316C22.0672 23.8132 22.053 23.7948 22.041 23.7766C22.029 23.7585 22.0158 23.7421 22.003 23.7262C21.9901 23.7104 21.9756 23.6892 21.9617 23.6708L21.9231 23.6204C21.8958 23.5869 21.8706 23.5533 21.8438 23.5196L21.8064 23.4735C21.7905 23.454 21.7741 23.4349 21.758 23.4157L21.7219 23.3734C21.7052 23.354 21.6883 23.3348 21.6713 23.3154L21.6358 23.2756L21.5827 23.2171L21.5513 23.1834C21.4859 23.1135 21.4189 23.0447 21.3503 22.9777L21.3202 22.9482L21.2573 22.8885L21.2264 22.8598C21.2046 22.8393 21.1827 22.8192 21.1605 22.7993L21.1378 22.7791C21.0605 22.7098 20.9809 22.6423 20.8999 22.5775L20.8778 22.5596C20.8528 22.5394 20.8277 22.5195 20.8023 22.4999L20.7772 22.4802C20.7498 22.46 20.7249 22.4401 20.6984 22.4202L20.685 22.4104C20.5956 22.3438 20.504 22.2791 20.4116 22.2168L20.3987 22.208C20.3695 22.1886 20.3402 22.1694 20.3107 22.1505L20.2913 22.1382C20.2612 22.1188 20.2308 22.0999 20.2005 22.081L20.1953 22.078C20.0947 22.016 19.9921 21.9566 19.8877 21.8998L19.8836 21.8972C19.8505 21.8794 19.8174 21.862 19.7843 21.8446L19.7698 21.837C19.5937 21.7454 19.4129 21.6614 19.2273 21.585L19.2159 21.5802C19.1669 21.56 19.1177 21.5406 19.0679 21.5215H20.0466C20.206 21.5215 20.3353 21.3524 20.3353 21.1434C20.3353 20.9345 20.206 20.7654 20.0466 20.7654H19.7551C19.7731 20.723 19.7931 20.6751 19.8147 20.6212C20.0903 20.4629 20.5754 20.1257 21.0566 19.5062L21.0605 19.5014C21.0969 19.4551 21.1327 19.4071 21.1679 19.3575L21.175 19.3477C21.21 19.2991 21.245 19.2489 21.2795 19.1965L21.2888 19.1826C21.3052 19.1574 21.3216 19.1322 21.338 19.107C21.338 19.107 21.338 19.105 21.3399 19.1037C21.3569 19.0785 21.3735 19.0508 21.3902 19.0238L21.4009 19.0064C21.4151 18.9833 21.4296 18.9596 21.4435 18.9356C21.4463 18.9313 21.449 18.9271 21.4515 18.9225C21.4676 18.8953 21.4837 18.8676 21.4996 18.8396L21.5105 18.8202C21.5237 18.797 21.5365 18.7736 21.5494 18.7499C21.5532 18.7433 21.557 18.7365 21.5606 18.7297C21.5759 18.7012 21.5912 18.6725 21.6065 18.6433L21.6172 18.6229C21.6292 18.5992 21.6415 18.575 21.6535 18.5508L21.6667 18.5256C21.6814 18.4958 21.6959 18.4656 21.7104 18.4351L21.7194 18.4157C21.7315 18.3905 21.7432 18.3653 21.755 18.3401L21.7689 18.3098C21.7826 18.2793 21.7963 18.2486 21.8094 18.2176C21.8119 18.212 21.8143 18.2062 21.8165 18.2007C21.8288 18.1722 21.8408 18.1432 21.8529 18.114L21.8665 18.0807C21.8778 18.053 21.889 18.025 21.8999 17.9971L21.9081 17.9759C21.921 17.9426 21.9335 17.9086 21.9461 17.8751L21.9592 17.8393C21.9691 17.8126 21.9787 17.7854 21.9882 17.7581C21.9918 17.7481 21.9953 17.738 21.9986 17.7279C22.0106 17.6931 22.0227 17.6576 22.0344 17.622C22.0383 17.6097 22.0424 17.5968 22.0462 17.5852L22.0735 17.5023C22.0771 17.4902 22.0809 17.4771 22.0845 17.4663C22.0957 17.4297 22.1069 17.3924 22.1176 17.3549C22.1211 17.343 22.1244 17.3309 22.1277 17.3188C22.1359 17.2899 22.1441 17.2609 22.152 17.2314C22.1556 17.218 22.1591 17.2047 22.1629 17.1913C22.1731 17.1525 22.1832 17.1134 22.193 17.0739L22.2012 17.0409C22.2089 17.0094 22.2165 16.9776 22.2239 16.9456L22.2338 16.9027C22.2431 16.8617 22.2524 16.8206 22.2611 16.7787C22.263 16.7707 22.2647 16.7624 22.2663 16.7535C22.274 16.7175 22.2813 16.681 22.2885 16.6444C22.2915 16.6295 22.2942 16.6147 22.2972 16.5998C22.3043 16.5622 22.3112 16.5242 22.318 16.4866C22.3194 16.4786 22.321 16.4708 22.3224 16.4629C22.33 16.4186 22.3375 16.3739 22.3448 16.3289C22.3472 16.3137 22.3497 16.2986 22.3519 16.2833C22.3576 16.2467 22.3631 16.2099 22.3686 16.1726L22.3735 16.1383C22.3801 16.092 22.3863 16.0453 22.3924 15.9979C22.3943 15.9831 22.3959 15.9682 22.3978 15.9531C22.4026 15.9155 22.4069 15.8776 22.411 15.8397C22.4126 15.8261 22.4142 15.8127 22.4156 15.7991C22.4209 15.7504 22.4258 15.7012 22.4304 15.6517C22.4304 15.6378 22.4328 15.6239 22.4339 15.6098C22.4375 15.57 22.441 15.5299 22.444 15.4896C22.444 15.4747 22.4465 15.4599 22.4476 15.445C22.4514 15.3936 22.455 15.3418 22.4583 15.2897C22.4583 15.2779 22.4583 15.2645 22.4602 15.254C22.4626 15.2106 22.4651 15.167 22.467 15.1231C22.467 15.1073 22.467 15.0914 22.4692 15.0755C22.4714 15.0213 22.4736 14.9669 22.4752 14.9117C22.4752 14.9041 22.4752 14.8963 22.4752 14.8885C22.4767 14.8394 22.4778 14.7899 22.4785 14.7398C22.4785 14.7234 22.4785 14.707 22.4785 14.6907C22.4785 14.6369 22.4785 14.5828 22.4785 14.5284V14.5158C22.4785 14.4578 22.4785 14.3991 22.4785 14.3393V14.2889C22.4785 14.2385 22.4763 14.1856 22.4749 14.1332V14.1047C22.473 14.0442 22.4706 13.983 22.4681 13.9215C22.4681 13.9056 22.4665 13.8895 22.4659 13.8736C22.4635 13.8218 22.4608 13.7697 22.4577 13.7173C22.4577 13.7045 22.4577 13.6921 22.4555 13.6783C22.4517 13.6152 22.4475 13.5517 22.4429 13.4877L22.4397 13.4431C22.4356 13.3897 22.4315 13.336 22.4268 13.2818C22.4268 13.2662 22.4244 13.2506 22.423 13.2349C22.4172 13.1694 22.411 13.1031 22.4044 13.0366C22.4044 13.024 22.4017 13.0114 22.4006 12.9985C22.3948 12.9418 22.3885 12.8846 22.3822 12.8269C22.3803 12.8095 22.3784 12.7924 22.3762 12.775C22.3686 12.7064 22.3604 12.6376 22.3516 12.5678C22.3516 12.5592 22.3492 12.5507 22.3481 12.5426C22.3402 12.4801 22.3319 12.4173 22.3232 12.3541C22.3204 12.3354 22.318 12.3168 22.3152 12.2981C22.305 12.2266 22.2946 12.1544 22.2838 12.0816C21.1901 4.9053 13.4392 6.06993 13.4392 6.06993L13.6875 7.61186L9 12.1761L9.2048 13.9386L10.9805 14.9467C11.0597 14.7613 11.1613 14.5847 11.2835 14.4202C12.4292 13.2022 14.6519 12.246 15.2882 12.0476C15.4156 12.008 15.4881 11.9881 15.4881 11.9881C12.4445 15.6189 12.7906 19.7784 12.9263 20.7699C12.7852 20.7951 12.6761 20.9521 12.6761 21.1437C12.6761 21.3524 12.8054 21.5217 12.9648 21.5217H13.9435C12.3159 22.1497 11.0239 23.3457 10.3497 24.8485C10.3489 24.8506 10.348 24.8526 10.3469 24.8546C10.2972 24.9661 10.2509 25.0793 10.208 25.1941C10.2081 25.1952 10.2081 25.1964 10.208 25.1976C10.1966 25.2288 10.1853 25.2601 10.1744 25.2916C10.1703 25.3029 10.1662 25.3143 10.1624 25.3259C10.1525 25.3541 10.1434 25.3826 10.135 25.4113C10.1301 25.4259 10.1255 25.4408 10.1208 25.4554C10.1121 25.4824 10.1036 25.5096 10.0954 25.5368L10.0806 25.5872C10.073 25.6124 10.0653 25.6394 10.0582 25.6656C10.053 25.6843 10.0481 25.7027 10.0432 25.7213C10.0366 25.7465 10.0298 25.7717 10.0235 25.7969C10.0172 25.8221 10.0112 25.8473 10.0052 25.874C9.99914 25.9008 9.99148 25.932 9.98492 25.9613H9.59472C9.51969 25.9597 9.44508 25.972 9.37528 25.9974C9.30548 26.0229 9.24189 26.0609 9.18823 26.1092C9.13458 26.1576 9.09195 26.2154 9.06285 26.2791C9.03375 26.3429 9.01876 26.4114 9.01876 26.4806C9.01876 26.5497 9.03375 26.6182 9.06285 26.682C9.09195 26.7457 9.13458 26.8035 9.18823 26.8519C9.24189 26.9003 9.30548 26.9383 9.37528 26.9637C9.44508 26.9891 9.51969 27.0014 9.59472 26.9999H23.424C23.4991 27.0014 23.5737 26.9891 23.6435 26.9637C23.7133 26.9383 23.7769 26.9003 23.8305 26.8519C23.8842 26.8035 23.9268 26.7457 23.9559 26.682C23.985 26.6182 24 26.5497 24 26.4806C24 26.4114 23.985 26.3429 23.9559 26.2791C23.9268 26.2154 23.8842 26.1576 23.8305 26.1092C23.7769 26.0609 23.7133 26.0229 23.6435 25.9974C23.5737 25.972 23.4991 25.9597 23.424 25.9613L23.4191 25.9567Z" stroke="#E6DBCF" stroke-width="1.73239" mask="url(#path-2-outside-1_549_14)"/>
</svg>
