<svg width="661" height="661" viewBox="0 0 661 661" fill="none" xmlns="http://www.w3.org/2000/svg">
<circle cx="330.244" cy="330.244" r="330" fill="#FBCE51"/>
<g style="mix-blend-mode:overlay">
<path d="M541.184 566.764L540.593 566.076L541.774 564.698L535.576 557.713L535.969 560.468L536.265 568.929L536.56 569.322L537.937 568.437L538.527 569.126L534.69 572.569L534.1 571.88L535.084 570.7L527.41 561.943L526.131 562.829L525.54 562.14L529.476 558.697L530.066 559.385L528.984 560.566L535.281 567.65L534.887 565.092L534.592 556.434L534.1 555.942L532.624 556.926L532.034 556.237L535.969 552.793L536.56 553.482L535.477 554.663L543.152 563.419L544.431 562.632L545.021 563.321L541.184 566.764Z" fill="black"/>
<path d="M531.542 574.733C531.148 575.225 530.853 575.52 530.558 575.816C530.263 576.111 529.968 576.406 529.673 576.603C528.492 577.587 527.41 578.177 526.426 578.275C525.442 578.374 524.655 578.078 523.966 577.193C523.376 576.406 523.081 575.619 523.179 574.733C523.278 573.848 523.671 573.061 524.262 572.372C523.376 573.061 522.491 573.356 521.605 573.356C520.72 573.258 520.031 572.864 519.441 572.175C518.555 571.093 518.26 570.109 518.457 569.027C518.653 567.945 519.441 566.862 520.818 565.682C521.408 565.19 521.999 564.796 522.491 564.6C522.983 564.304 523.474 564.108 523.77 564.009C524.065 563.911 524.261 563.812 524.36 563.812L526.131 566.567L525.442 567.158L523.474 565.583C522.786 565.682 522.097 566.075 521.212 566.764C520.523 567.256 520.228 567.846 520.228 568.535C520.228 569.224 520.523 569.912 521.113 570.7C521.605 571.29 522.195 571.683 522.884 571.782C523.573 571.88 524.36 571.585 525.245 570.896L526.229 570.109L526.918 570.896L526.032 571.585C525.639 571.88 525.344 572.274 525.049 572.766C524.852 573.258 524.753 573.749 524.753 574.241C524.852 574.733 525.049 575.324 525.442 575.816C525.934 576.504 526.524 576.799 527.115 576.799C527.705 576.799 528.295 576.504 528.984 576.012C529.378 575.619 529.771 575.324 529.968 574.93C530.165 574.537 530.263 574.241 530.263 574.045L529.476 572.47L530.361 571.683L532.329 573.848C532.231 573.946 531.936 574.241 531.542 574.733Z" fill="black"/>
<path d="M518.26 583.982L519.637 583.293L520.228 584.08L518.162 585.556C517.866 585.851 517.374 586.146 516.883 586.54C516.391 586.933 516.095 587.228 515.899 587.425C514.521 588.409 513.341 588.901 512.455 588.901C511.57 588.901 510.783 588.507 510.192 587.622C509.7 586.933 509.405 586.146 509.504 585.359C509.504 584.572 509.897 583.785 510.487 583.195C509.504 583.883 508.618 584.277 507.733 584.178C506.847 584.08 506.06 583.687 505.47 582.801C504.683 581.817 504.486 580.735 504.781 579.554C505.076 578.374 505.962 577.193 507.634 576.012C508.028 575.717 508.323 575.52 508.716 575.324C509.504 574.832 509.996 574.438 510.192 574.34L512.16 572.864L512.652 573.651L511.471 574.733L518.26 583.982ZM508.126 576.701C507.142 577.488 506.552 578.177 506.355 578.964C506.158 579.751 506.454 580.44 506.945 581.227C507.536 582.014 508.126 582.408 508.815 582.506C509.504 582.604 510.291 582.309 511.176 581.62C512.16 580.833 512.849 580.44 513.144 580.145L509.897 575.619C509.504 575.717 509.012 576.111 508.126 576.701ZM512.849 581.719L512.062 582.309C511.373 582.801 510.979 583.391 510.881 584.08C510.783 584.769 510.979 585.457 511.57 586.146C512.062 586.835 512.652 587.228 513.242 587.327C513.833 587.425 514.62 587.13 515.505 586.441C515.899 586.146 516.194 585.851 516.587 585.556L516.883 585.261L513.833 581.03C513.636 581.227 513.341 581.424 512.849 581.719Z" fill="black"/>
<path d="M505.666 594.313L503.994 595.493L493.073 587.229L491.991 587.721L491.499 586.934L495.631 584.179L496.123 584.966L494.942 585.95L497.205 587.819L501.731 584.769L500.944 582.014L499.468 582.703L498.976 581.916L502.715 579.456L503.207 580.243L502.321 581.031L505.666 594.313ZM503.108 592.443L504.387 593.525L503.797 591.853L502.026 585.851L498.091 588.508L503.108 592.443Z" fill="black"/>
<path d="M489.138 589.098C490.318 589.098 491.302 589.393 492.286 590.082C493.27 590.77 494.155 591.656 494.844 592.935C495.533 594.116 495.926 595.296 496.025 596.575C496.123 597.854 495.828 598.937 495.238 599.92C494.647 600.904 493.86 601.79 492.778 602.478C491.991 602.97 490.909 603.462 489.629 603.856L489.039 604.053L487.465 601.101L488.547 600.412L490.22 602.183C490.417 602.183 490.81 602.183 491.204 602.085C491.597 601.986 492.089 601.691 492.679 601.396C493.368 601.003 493.86 600.412 494.155 599.724C494.45 599.035 494.549 598.149 494.352 597.264C494.155 596.379 493.762 595.296 493.171 594.312C492.581 593.329 491.892 592.443 491.105 591.853C490.318 591.262 489.531 590.77 488.744 590.672C487.957 590.574 487.071 590.672 486.284 591.164C485.694 591.459 485.301 591.853 485.104 592.049C484.907 592.246 484.71 592.64 484.612 592.935L484.907 594.903L483.825 595.395L482.841 592.935C483.038 592.837 483.333 592.541 483.726 592.148C484.021 591.754 484.317 591.459 484.71 591.164C485.005 590.869 485.497 590.574 485.989 590.279C486.875 589.491 487.957 589.098 489.138 589.098Z" fill="black"/>
<path d="M479.299 606.807C479.201 607.89 478.905 608.972 478.413 609.759C477.823 610.645 477.135 611.333 476.249 611.727C475.167 612.317 474.085 612.514 473.101 612.416C472.117 612.317 471.133 611.924 470.247 611.235C469.362 610.546 468.575 609.661 467.985 608.382C467.296 607.004 466.902 605.725 466.804 604.545C466.706 603.266 467.001 602.183 467.493 601.2C467.985 600.216 468.772 599.527 469.756 598.937C470.838 598.346 471.92 598.051 473.002 598.15C474.085 598.248 474.97 598.641 475.855 599.232C476.741 599.921 477.528 600.806 478.118 602.085L480.775 600.708L478.217 595.887L476.741 596.477L476.347 595.69L480.873 593.23L481.267 594.017L479.988 594.903L485.497 605.135L486.875 604.643L487.268 605.43L482.841 607.791L482.447 607.004L483.726 606.119L481.365 601.691L478.709 603.167C479.102 604.545 479.299 605.725 479.299 606.807ZM477.528 608.185C477.626 606.906 477.233 605.43 476.249 603.561C475.364 601.987 474.38 600.806 473.297 600.216C472.215 599.625 471.133 599.527 469.952 600.117C468.87 600.708 468.378 601.593 468.28 602.774C468.181 603.954 468.673 605.529 469.657 607.398C470.543 608.972 471.428 610.153 472.51 610.743C473.593 611.432 474.675 611.432 475.659 610.841C476.839 610.349 477.43 609.464 477.528 608.185Z" fill="black"/>
<path d="M458.54 611.53C457.851 611.136 456.867 610.644 455.785 609.956C454.998 609.464 454.506 609.07 454.112 608.873C453.719 608.677 453.423 608.578 453.227 608.578L452.538 608.677L452.144 607.89L454.21 606.906C454.506 606.807 454.899 606.906 455.391 607.201C455.883 607.496 456.67 607.988 457.556 608.677C458.638 609.464 459.425 609.956 460.114 610.349C460.704 610.743 461.196 610.841 461.589 610.644L462.672 610.152L460.409 605.331L458.835 605.823L458.441 605.036L463.065 602.872L463.459 603.757L462.18 604.544L467.099 615.072L468.575 614.678L468.968 615.564L464.443 617.63L464.049 616.548L465.328 615.662L463.065 610.743L461.589 611.431L460.409 617.925L461.885 617.433L462.278 618.318L458.146 620.286L457.752 619.401L459.031 618.614L460.409 611.923C459.917 612.022 459.228 611.825 458.54 611.53Z" fill="black"/>
<path d="M449.39 609.66C450.472 609.857 451.357 610.349 452.145 611.235C452.932 612.022 453.62 613.104 454.211 614.383C454.801 615.662 454.998 616.941 454.899 618.22C454.801 619.401 454.407 620.483 453.817 621.368C453.128 622.254 452.341 622.942 451.161 623.434C449.39 624.222 447.717 624.222 446.34 623.434C444.962 622.647 443.782 621.368 442.995 619.302C442.404 617.925 442.208 616.646 442.306 615.465C442.404 614.186 442.798 613.202 443.388 612.218C444.077 611.333 444.962 610.644 446.045 610.152C447.225 609.66 448.307 609.464 449.39 609.66ZM452.932 619.893C453.128 618.614 452.932 617.138 452.145 615.17C451.456 613.399 450.57 612.218 449.488 611.431C448.406 610.644 447.324 610.546 446.241 611.038C445.159 611.53 444.47 612.317 444.274 613.596C444.077 614.875 444.274 616.449 445.061 618.318C445.749 620.089 446.635 621.27 447.717 621.959C448.701 622.647 449.783 622.844 450.964 622.352C452.046 622.057 452.735 621.172 452.932 619.893Z" fill="black"/>
<path d="M441.912 625.697L443.388 625.402L443.683 626.288L441.322 627.173C440.928 627.272 440.437 627.567 439.846 627.764C439.256 628.059 438.862 628.157 438.666 628.256C437.091 628.846 435.812 629.043 434.927 628.747C434.041 628.452 433.451 627.862 433.058 626.878C432.762 626.091 432.762 625.205 432.959 624.517C433.156 623.828 433.746 623.139 434.533 622.647C433.451 623.041 432.467 623.139 431.582 622.844C430.696 622.549 430.106 621.86 429.811 620.975C429.417 619.794 429.417 618.712 430.008 617.63C430.598 616.548 431.779 615.662 433.746 614.973C434.14 614.777 434.533 614.678 435.025 614.58C435.911 614.285 436.501 614.088 436.698 614.088L439.059 613.202L439.354 614.088L437.977 614.777L441.912 625.697ZM434.14 615.957C432.959 616.351 432.172 616.941 431.877 617.63C431.483 618.318 431.483 619.106 431.877 619.991C432.172 620.877 432.664 621.467 433.254 621.664C433.845 621.86 434.73 621.86 435.714 621.467C436.895 621.073 437.682 620.778 437.977 620.581L436.108 615.367C435.714 615.367 435.124 615.564 434.14 615.957ZM437.387 622.057L436.403 622.451C435.616 622.746 435.025 623.238 434.828 623.828C434.632 624.418 434.632 625.205 434.927 625.993C435.222 626.78 435.616 627.37 436.206 627.567C436.796 627.764 437.583 627.764 438.567 627.37C438.961 627.173 439.453 627.075 439.846 626.78L440.24 626.583L438.469 621.664C438.174 621.762 437.879 621.86 437.387 622.057Z" fill="black"/>
<path d="M414.266 635.93L413.971 635.044L415.446 634.356L412.101 623.238L410.33 623.533L410.035 622.648L415.053 621.172L415.348 622.057L413.872 622.648L417.217 633.864L422.924 632.191L419.579 620.975L417.906 621.27L417.611 620.385L422.629 618.909L422.924 619.794L421.546 620.385L424.891 631.502L426.466 631.306L426.761 632.191L414.266 635.93Z" fill="black"/>
<path d="M406.592 624.32C407.575 624.714 408.461 625.304 409.15 626.288C409.838 627.173 410.33 628.354 410.724 629.731C411.019 631.109 411.117 632.388 410.822 633.568C410.527 634.749 410.035 635.733 409.248 636.52C408.461 637.307 407.477 637.897 406.395 638.192C404.526 638.684 402.951 638.389 401.672 637.504C400.393 636.52 399.508 635.044 398.918 632.88C398.524 631.502 398.524 630.125 398.819 628.944C399.114 627.763 399.606 626.681 400.393 625.894C401.18 625.107 402.164 624.517 403.345 624.222C404.526 623.926 405.608 623.926 406.592 624.32ZM408.658 634.946C409.051 633.765 409.051 632.191 408.559 630.223C408.067 628.452 407.379 627.075 406.493 626.189C405.608 625.304 404.526 625.009 403.345 625.304C402.164 625.599 401.377 626.386 400.984 627.567C400.59 628.747 400.59 630.42 401.082 632.388C401.574 634.257 402.164 635.536 403.148 636.422C404.034 637.307 405.116 637.602 406.296 637.307C407.379 636.815 408.166 636.126 408.658 634.946Z" fill="black"/>
<path d="M392.621 632.093C392.523 630.322 392.621 629.043 393.014 628.059C393.211 627.567 393.408 627.173 393.703 626.878C393.998 626.583 394.392 626.386 394.785 626.288C395.376 626.189 395.769 626.091 396.064 626.091L396.458 627.567C396.163 627.567 395.671 627.665 395.081 627.764C394.884 627.764 394.687 627.862 394.49 628.059C394.293 628.256 394.195 628.452 394.097 628.649C393.408 630.322 393.605 633.372 394.49 637.799L394.785 639.275L396.95 639.078L397.147 639.963L386.521 642.128L386.324 641.242L387.997 640.652L385.734 629.239L383.865 629.436L383.668 628.551L389.276 627.468L389.473 628.354L387.603 628.944L389.866 640.357L393.605 639.57L393.31 637.897C393.014 635.733 392.719 633.765 392.621 632.093Z" fill="black"/>
<path d="M382.881 641.636H384.455L384.553 642.522L375.108 643.997L374.42 641.144L375.502 640.947L376.289 642.62L380.913 642.03L380.126 636.815L377.076 637.307V638.881L376.092 639.078L375.403 634.847L376.387 634.651L376.879 636.225L379.929 635.831L379.044 630.322L373.829 631.306L373.239 633.765L372.058 633.568V630.223L382.29 628.649L382.389 629.535L380.913 629.928L382.881 641.636Z" fill="black"/>
<path d="M367.532 643.997L370.681 643.505L370.878 639.57L372.058 639.471L372.353 644.489L360.744 645.768L359.957 640.849L361.137 640.75L362.22 644.588L365.466 644.292L364.089 632.584L361.433 632.683L361.334 631.797L368.418 631.01L368.516 631.896L366.155 632.388L367.532 643.997Z" fill="black"/>
<path d="M352.283 638.586L353.168 638.488C353.463 638.291 353.758 637.799 353.955 637.209C354.152 636.619 354.546 635.831 354.841 634.946C355.136 634.06 355.431 633.372 355.628 632.88C355.825 632.388 356.021 632.191 356.218 632.191L358.776 631.994L358.875 632.88L358.186 633.175C357.989 633.273 357.792 633.372 357.595 633.765C357.399 634.06 357.104 634.651 356.808 635.339C356.415 636.225 356.12 636.914 355.825 637.406C355.529 637.996 355.234 638.291 354.841 638.586C355.726 638.783 356.415 639.177 356.907 639.767C357.399 640.357 357.694 641.144 357.792 642.128C357.891 643.604 357.497 644.686 356.71 645.277C355.825 645.867 354.644 646.26 352.971 646.359C352.578 646.359 352.184 646.359 351.594 646.359C351.004 646.359 350.512 646.359 350.217 646.359L347.56 646.556L347.462 645.67L349.036 645.375L348.249 633.765L346.478 633.667L346.38 632.781L351.889 632.388L351.987 633.273L350.217 633.569L350.61 638.488L352.283 638.586ZM351.496 645.473C352.086 645.473 352.578 645.473 352.971 645.473C353.955 645.375 354.644 645.178 355.136 644.686C355.628 644.194 355.825 643.506 355.726 642.423C355.628 641.439 355.333 640.652 354.742 640.16C354.152 639.668 353.463 639.472 352.479 639.472C351.496 639.57 350.807 639.57 350.512 639.668L350.905 645.375L351.496 645.473Z" fill="black"/>
<path d="M340.673 645.965L343.92 645.768L344.412 641.833H345.691L345.494 646.85L333.884 647.146L333.491 642.128H334.671L335.36 646.063H338.607L338.213 634.257L335.557 634.159V633.273L342.739 633.076V633.962L340.28 634.257L340.673 645.965Z" fill="black"/>
<path d="M325.03 633.962C326.014 634.552 326.702 635.438 327.194 636.52C327.686 637.602 327.883 638.881 327.883 640.357C327.883 641.734 327.489 643.013 326.899 643.997C326.309 645.08 325.423 645.867 324.439 646.457C323.357 647.047 322.275 647.244 320.996 647.244C320.012 647.244 318.93 647.047 317.552 646.752L316.962 646.654L317.257 643.309H318.536L318.93 645.67C319.126 645.867 319.422 645.965 319.815 646.063C320.209 646.162 320.799 646.26 321.389 646.26C322.176 646.26 322.865 646.063 323.554 645.67C324.144 645.276 324.735 644.588 325.03 643.702C325.423 642.817 325.62 641.734 325.62 640.554C325.62 639.373 325.522 638.291 325.226 637.307C324.931 636.323 324.439 635.536 323.849 634.946C323.259 634.355 322.472 634.06 321.488 634.06C320.799 634.06 320.307 634.06 319.914 634.159C319.52 634.257 319.225 634.454 319.028 634.651L318.241 636.422L317.06 636.225L317.552 633.568C317.847 633.568 318.241 633.47 318.733 633.372C319.225 633.273 319.618 633.175 320.012 633.076C320.405 632.978 320.996 632.978 321.586 632.978C322.865 632.978 324.046 633.273 325.03 633.962Z" fill="black"/>
<path d="M309.288 646.457L309.386 645.572L311.256 645.473L311.944 636.127L310.272 638.291L304.467 644.489V644.981L306.139 645.277L306.041 646.162L300.925 645.768L301.023 644.883L302.499 644.785L303.286 633.175L301.712 632.88L301.81 631.994L307.025 632.388L306.927 633.273L305.254 633.372L304.565 642.817L306.139 640.751L312.141 634.454V633.765L310.37 633.47L310.468 632.585L315.683 632.978L315.585 633.864L314.01 633.962L313.223 645.572L314.699 645.867L314.601 646.752L309.288 646.457Z" fill="black"/>
<path d="M289.02 644.588L289.414 639.668L290.693 639.767L290.791 643.604L294.825 644.194L296.202 632.486L292.956 631.896L293.054 631.01L300.335 631.797L300.236 632.683H298.17L296.891 644.194L298.859 644.686L298.76 645.571L289.02 644.588Z" fill="black"/>
<path d="M285.97 643.014L287.348 643.506L287.249 644.391L282.232 643.604L282.33 642.718H283.904L284.691 637.799L278.198 636.815L277.411 641.735L278.887 642.226L278.788 643.112L273.869 642.325L273.967 641.439H275.443L277.214 629.928L275.738 629.535L275.837 628.649L280.756 629.436L280.658 630.322L279.083 630.223L278.198 635.635L284.691 636.618L285.577 631.207L284.003 630.814L284.101 629.928L289.217 630.715L289.119 631.601L287.643 631.502L285.97 643.014Z" fill="black"/>
<path d="M267.08 640.947L265.113 640.554L263.243 626.977L262.161 626.583L262.358 625.698L267.179 626.681L266.982 627.567L265.408 627.468L265.703 630.322L271.016 631.404L272.393 628.846L270.819 628.354L271.016 627.468L275.345 628.354L275.148 629.239L273.967 629.141L267.08 640.947ZM266.49 637.799L266.588 639.472L267.375 637.897L270.425 632.388L265.801 631.404L266.49 637.799Z" fill="black"/>
<path d="M256.455 629.535C257.143 627.961 257.832 626.78 258.521 625.993C258.914 625.599 259.209 625.403 259.603 625.206C259.996 625.107 260.39 625.107 260.882 625.206C261.472 625.304 261.866 625.501 262.161 625.599L261.964 627.075C261.669 626.977 261.275 626.878 260.587 626.682C260.39 626.583 260.193 626.583 259.996 626.682C259.8 626.78 259.603 626.878 259.406 627.075C258.127 628.256 256.946 631.109 255.766 635.536L255.372 637.012L257.438 637.799L257.242 638.685L246.813 636.028L247.009 635.143L248.78 635.34L251.634 624.025L249.863 623.435L250.059 622.549L255.667 623.927L255.471 624.812L253.601 624.517L250.748 635.733L254.388 636.619L254.782 634.946C255.175 632.978 255.766 631.109 256.455 629.535Z" fill="black"/>
<path d="M227.627 630.322L227.923 629.436L229.693 629.732L233.137 618.614L231.563 617.925L231.858 617.04L237.072 618.712L236.777 619.598L235.105 619.303L231.661 630.42L233.235 631.109L232.94 631.994L227.627 630.322ZM240.418 628.551C238.942 628.059 237.958 627.37 237.368 626.485C236.777 625.599 236.679 624.517 237.072 623.238C237.466 621.861 238.253 620.975 239.335 620.483C240.418 619.991 241.697 619.991 243.172 620.385C243.369 620.483 243.566 620.483 243.763 620.582C243.959 620.68 244.156 620.778 244.353 620.778C245.042 621.074 245.632 621.27 246.124 621.467L248.584 622.254L248.288 623.14L246.714 622.845L243.271 633.962L244.648 634.651L244.353 635.536L239.237 633.962L239.532 633.077L241.401 633.372L242.68 629.24L240.418 628.551ZM244.156 621.861C243.959 621.762 243.664 621.664 243.172 621.566C242.189 621.27 241.303 621.27 240.614 621.664C239.926 622.057 239.434 622.746 239.04 623.828C238.745 624.812 238.745 625.599 239.139 626.288C239.532 626.977 240.221 627.469 241.205 627.764L243.074 628.354L244.943 622.353C244.648 622.058 244.451 621.959 244.156 621.861Z" fill="black"/>
<path d="M219.855 626.19L221.134 626.977L220.839 627.862L216.116 625.993L216.411 625.107L217.986 625.501L219.855 620.778L213.755 618.417L211.886 623.14L213.165 623.927L212.869 624.812L208.245 622.943L208.54 622.057L210.016 622.352L214.247 611.53L212.968 610.841L213.263 609.956L217.986 611.825L217.69 612.711L216.215 612.317L214.247 617.335L220.347 619.696L222.314 614.678L220.839 613.891L221.134 613.006L225.955 614.875L225.66 615.761L224.184 615.367L219.855 626.19Z" fill="black"/>
<path d="M201.85 620.188L199.981 619.302L201.063 605.627L200.079 604.938L200.473 604.151L204.999 606.119L204.605 607.004L203.129 606.512L202.834 609.365L207.852 611.628L209.82 609.464L208.442 608.677L208.836 607.89L212.87 609.66L212.476 610.448L211.295 610.152L201.85 620.188ZM202.047 617.039L201.85 618.712L202.933 617.335L207.065 612.612L202.736 610.644L202.047 617.039Z" fill="black"/>
<path d="M188.273 612.415L189.946 613.596L189.552 614.383L185.125 612.022L186.699 603.364L187.289 601.003L185.715 602.872L179.517 609.07L175.188 606.807L175.581 606.02L177.549 606.807L181.681 595.886L180.304 594.903L180.697 594.115L185.42 596.673L185.026 597.461L183.452 596.87L180.304 604.643L178.926 607.988L180.894 606.02L188.273 598.838L189.355 599.428L187.879 608.775L187.191 612.415L189.158 609.365L193.783 602.282L192.208 601.298L192.602 600.511L196.931 602.773L196.537 603.561L195.062 602.97L188.273 612.415Z" fill="black"/>
<path d="M168.891 603.167L167.12 602.085L169.875 588.705L168.989 587.918L169.481 587.13L173.712 589.688L173.22 590.476L171.744 589.885L171.055 592.738L175.778 595.493L177.942 593.525L176.663 592.542L177.155 591.755L180.992 594.017L180.5 594.805L179.418 594.411L168.891 603.167ZM169.481 600.019L169.088 601.692L170.367 600.511L175.089 596.28L170.957 593.821L169.481 600.019Z" fill="black"/>
<path d="M160.725 596.673L161.807 597.657L161.315 598.444L159.249 597.067C158.856 596.87 158.462 596.575 158.068 596.378C157.478 596.083 156.888 595.69 156.396 595.394C154.92 594.411 154.035 593.427 153.739 592.443C153.444 591.459 153.739 590.475 154.428 589.295C155.018 588.507 155.609 587.819 156.396 587.524C157.183 587.13 158.068 587.032 158.954 587.13C159.839 587.228 160.725 587.622 161.61 588.212C161.906 588.409 162.201 588.606 162.496 588.803C162.791 588.999 162.988 589.196 163.086 589.196L165.349 585.753L163.283 584.178L163.775 583.391L168.891 586.737L168.399 587.524L167.022 586.835L160.725 596.673ZM161.118 589.098C160.331 588.606 159.446 588.409 158.659 588.507C157.872 588.606 156.986 589.295 156.298 590.475C155.707 591.361 155.51 592.148 155.707 592.836C155.904 593.525 156.494 594.214 157.38 594.804C157.675 595.001 158.068 595.198 158.462 595.394C158.659 595.493 158.856 595.591 158.954 595.69L162.594 590.18C162.299 589.983 161.807 589.59 161.118 589.098Z" fill="black"/>
<path d="M156.396 579.358C156.888 580.44 156.986 581.522 156.691 582.703C156.494 583.884 155.904 585.064 155.117 586.245C154.33 587.425 153.346 588.213 152.264 588.704C151.181 589.196 150.001 589.492 148.82 589.295C147.64 589.196 146.557 588.803 145.475 588.016C144.688 587.425 143.802 586.638 142.917 585.654L142.523 585.163L144.59 582.506L145.573 583.195L144.59 585.359C144.688 585.556 144.786 585.851 145.081 586.245C145.377 586.54 145.77 586.933 146.262 587.327C146.951 587.819 147.64 588.016 148.427 588.016C149.214 588.016 150.001 587.721 150.788 587.229C151.575 586.737 152.362 585.95 153.051 584.966C153.739 583.982 154.231 583.096 154.527 582.113C154.822 581.129 154.92 580.243 154.723 579.456C154.527 578.669 154.035 577.98 153.346 577.39C152.854 576.997 152.362 576.8 151.969 576.603C151.575 576.406 151.28 576.406 150.985 576.505L149.312 577.587L148.427 576.8L150.296 574.93C150.493 575.029 150.886 575.226 151.378 575.422C151.87 575.619 152.264 575.718 152.657 575.914C153.051 576.111 153.444 576.406 154.035 576.701C155.215 577.39 156.002 578.276 156.396 579.358Z" fill="black"/>
<path d="M122.157 569.322L122.748 568.634L124.224 569.716L130.422 562.632L127.766 563.321L119.403 564.698L119.108 565.092L120.19 566.371L119.599 567.059L115.762 563.616L116.353 562.927L117.632 563.714L125.306 554.958L124.224 553.777L124.814 553.089L128.749 556.532L128.159 557.221L126.782 556.237L120.485 563.419L122.945 562.73L131.504 561.353L131.996 560.861L130.815 559.582L131.406 558.893L135.341 562.337L134.751 563.026L133.472 562.14L125.798 570.896L126.782 572.077L126.191 572.766L122.157 569.322Z" fill="black"/>
<path d="M113.008 560.763C112.516 560.468 112.122 560.172 111.729 559.976C111.335 559.779 111.138 559.484 110.843 559.287C109.761 558.205 109.072 557.221 108.777 556.237C108.482 555.253 108.777 554.466 109.564 553.679C110.253 552.99 111.04 552.597 111.925 552.597C112.811 552.597 113.598 552.892 114.385 553.384C113.598 552.597 113.106 551.711 113.106 550.826C113.106 549.94 113.401 549.153 113.991 548.464C114.877 547.481 115.959 546.989 117.041 547.087C118.124 547.185 119.304 547.776 120.682 549.055C121.174 549.547 121.666 550.039 121.961 550.531C122.256 551.023 122.551 551.416 122.748 551.711C122.945 552.006 123.043 552.203 123.043 552.302L120.583 554.368L119.895 553.679L121.174 551.613C120.977 550.924 120.485 550.235 119.698 549.547C119.108 548.956 118.419 548.661 117.829 548.76C117.238 548.858 116.451 549.252 115.762 549.94C115.27 550.531 114.975 551.121 114.877 551.81C114.877 552.498 115.27 553.285 116.058 553.974L117.041 554.86L116.353 555.647L115.566 554.86C115.172 554.466 114.779 554.269 114.287 554.072C113.795 553.876 113.303 553.876 112.811 553.974C112.319 554.072 111.827 554.368 111.335 554.86C110.745 555.45 110.548 556.04 110.548 556.63C110.646 557.221 110.941 557.811 111.532 558.401C111.925 558.795 112.319 559.09 112.712 559.189C113.106 559.385 113.401 559.385 113.598 559.287L115.074 558.303L115.959 559.09L114.09 561.255C113.893 561.255 113.598 561.058 113.008 560.763Z" fill="black"/>
<path d="M102.185 548.759L103.071 550.039L102.382 550.629L100.611 548.759C100.316 548.464 99.9223 548.071 99.4303 547.677C98.9384 547.284 98.6432 546.989 98.4465 546.792C97.2658 545.513 96.6755 544.431 96.4787 543.545C96.3804 542.66 96.6755 541.872 97.4626 541.085C98.1513 540.495 98.84 540.102 99.6271 540.102C100.414 540.003 101.201 540.298 101.89 540.79C101.103 539.905 100.611 539.019 100.611 538.134C100.611 537.248 100.906 536.461 101.693 535.773C102.579 534.887 103.661 534.494 104.842 534.69C106.022 534.789 107.301 535.576 108.777 537.15C109.072 537.445 109.367 537.839 109.662 538.134C110.253 538.822 110.646 539.314 110.843 539.413L112.516 541.184L111.827 541.774L110.646 540.79L102.185 548.759ZM103.759 543.053L103.071 542.266C102.48 541.676 101.89 541.282 101.201 541.282C100.513 541.282 99.9223 541.577 99.2336 542.168C98.6433 542.758 98.2497 543.348 98.2497 543.939C98.2497 544.529 98.6432 545.218 99.3319 546.005C99.6271 546.3 100.021 546.693 100.316 546.989L100.611 547.284L104.448 543.742C104.448 543.742 104.153 543.447 103.759 543.053ZM108.187 537.74C107.301 536.855 106.514 536.363 105.727 536.264C104.94 536.166 104.251 536.461 103.563 537.15C102.874 537.839 102.48 538.429 102.579 539.118C102.677 539.806 102.972 540.495 103.759 541.282C104.645 542.168 105.137 542.758 105.432 543.053L109.466 539.216C109.269 539.019 108.875 538.527 108.187 537.74Z" fill="black"/>
<path d="M90.3788 537.544L89.0013 535.969L95.79 524.163L95.1997 523.179L95.8884 522.589L99.1351 526.328L98.4464 526.918L97.2658 525.836L95.6916 528.295L99.2335 532.427L101.89 531.247L101.004 529.869L101.693 529.279L104.546 532.624L103.858 533.215L102.972 532.427L90.3788 537.544ZM91.8546 534.69L90.8707 536.166L92.4449 535.379L98.2497 532.919L95.1013 529.279L91.8546 534.69Z" fill="black"/>
<path d="M93.4288 520.425C93.5272 521.507 93.3305 522.688 92.8385 523.671C92.3466 524.655 91.4611 525.737 90.3789 526.623C89.2966 527.508 88.116 528 86.9354 528.197C85.7547 528.394 84.5741 528.296 83.4918 527.902C82.4096 527.508 81.4257 526.721 80.6386 525.738C80.0483 524.95 79.458 523.967 78.8677 522.786L78.5725 522.196L81.3273 520.228L82.1144 521.212L80.5403 523.081C80.5403 523.278 80.6386 523.671 80.8354 524.065C81.0322 524.458 81.3273 524.95 81.7209 525.442C82.2128 526.033 82.8031 526.525 83.5902 526.721C84.3773 526.918 85.1644 526.918 86.0499 526.623C86.9353 526.328 87.9192 525.836 88.9031 525.049C89.7886 524.36 90.5756 523.573 91.1659 522.688C91.7563 521.802 92.0514 521.015 92.0514 520.13C92.1498 519.244 91.8547 518.457 91.2643 517.768C90.8708 517.276 90.4772 516.883 90.1821 516.686C89.8869 516.489 89.5918 516.292 89.1982 516.292L87.2305 516.784L86.6402 515.8L89.0014 514.521C89.1982 514.718 89.4934 515.013 89.8869 515.309C90.2805 515.604 90.674 515.801 90.9692 516.096C91.2643 516.391 91.6579 516.784 92.0514 517.276C92.8385 518.26 93.3304 519.342 93.4288 520.425Z" fill="black"/>
<path d="M74.6371 512.849C73.5548 512.947 72.4726 512.75 71.5871 512.357C70.7016 511.963 69.9145 511.274 69.3242 510.389C68.6355 509.405 68.242 508.421 68.242 507.339C68.242 506.257 68.4387 505.273 69.0291 504.387C69.6194 503.403 70.4065 502.616 71.4887 501.829C72.7677 500.944 73.9484 500.452 75.129 500.157C76.3096 499.96 77.4903 500.058 78.4741 500.452C79.458 500.845 80.3435 501.534 81.0322 502.42C81.7209 503.403 82.1144 504.486 82.2128 505.568C82.3112 506.65 82.016 507.634 81.4257 508.618C80.8354 509.602 80.0483 510.487 78.9661 511.274L80.737 513.734L85.1644 510.586L84.3773 509.11L85.1644 508.618L88.1159 512.849L87.3289 513.34L86.2466 512.16L76.8015 518.85L77.4903 520.227L76.7032 520.719L73.7516 516.587L74.5387 516.095L75.6209 517.276L79.7531 514.324L77.9822 511.865C76.8999 512.455 75.7193 512.849 74.6371 512.849ZM73.0629 511.373C74.3419 511.373 75.8177 510.782 77.4903 509.503C78.9661 508.421 79.9499 507.339 80.4418 506.158C80.9338 504.978 80.8354 503.895 80.1467 502.912C79.458 501.928 78.4741 501.534 77.2935 501.534C76.1128 501.534 74.6371 502.223 72.9645 503.403C71.4887 504.486 70.5048 505.568 70.0129 506.65C69.521 507.831 69.6194 508.815 70.3081 509.799C70.8984 510.881 71.8823 511.373 73.0629 511.373Z" fill="black"/>
<path d="M67.4548 492.975C67.75 492.188 68.1435 491.204 68.7338 490.023C69.1274 489.236 69.4225 488.646 69.6193 488.154C69.8161 487.76 69.8161 487.465 69.8161 487.268L69.6193 486.58L70.4064 486.088L71.6854 488.056C71.8822 488.252 71.7838 488.744 71.587 489.236C71.3903 489.827 70.9967 490.614 70.4064 491.597C69.8161 492.778 69.3242 493.664 69.029 494.352C68.7338 495.041 68.7338 495.533 68.9306 495.828L69.5209 496.812L74.0467 493.959L73.358 492.385L74.1451 491.893L76.8999 496.222L76.1128 496.714L75.1289 495.533L65.2903 501.731L65.8806 503.109L65.0936 503.601L62.4371 499.37L63.2242 498.878L64.2081 500.059L68.7338 497.206L67.8483 495.828L61.2565 495.533L61.9452 497.009L61.1581 497.501L58.6985 493.565L59.4855 493.073L60.4694 494.156L67.2581 494.647C67.0613 494.352 67.1597 493.664 67.4548 492.975Z" fill="black"/>
<path d="M68.0452 483.628C67.9468 484.71 67.5533 485.694 66.8646 486.58C66.1759 487.465 65.192 488.351 64.0114 489.039C62.7324 489.728 61.5518 490.122 60.3711 490.22C59.1905 490.318 58.1082 490.023 57.1244 489.531C56.1405 489.039 55.3534 488.252 54.7631 487.17C53.7792 485.497 53.5825 483.923 54.1728 482.349C54.7631 480.873 55.9437 479.594 57.8131 478.512C59.0921 477.823 60.3711 477.43 61.5517 477.331C62.7324 477.233 63.913 477.528 64.8969 478.02C65.8807 478.512 66.6678 479.299 67.2581 480.381C67.8485 481.464 68.1436 482.546 68.0452 483.628ZM58.305 488.449C59.584 488.547 61.0598 488.055 62.8308 487.072C64.5033 486.186 65.5856 485.104 66.1759 484.022C66.7662 482.939 66.7662 481.759 66.1759 480.775C65.5856 479.693 64.6017 479.201 63.3227 479.102C62.0437 479.004 60.4695 479.496 58.6985 480.48C57.026 481.365 55.9437 482.447 55.3534 483.53C54.7631 484.612 54.7631 485.694 55.3534 486.776C56.1405 487.76 57.1244 488.351 58.305 488.449Z" fill="black"/>
<path d="M51.2212 478.217L51.7131 479.693L50.926 480.086L49.7454 477.823C49.5486 477.43 49.2535 476.938 48.9583 476.446C48.6632 475.954 48.368 475.56 48.2696 475.265C47.4825 473.691 47.1874 472.51 47.2857 471.625C47.3841 470.739 47.9745 470.051 48.8599 469.559C49.647 469.165 50.4341 469.067 51.2212 469.165C52.0083 469.362 52.697 469.756 53.2873 470.444C52.697 469.362 52.5002 468.476 52.697 467.591C52.8938 466.706 53.4841 466.017 54.3696 465.623C55.4518 465.033 56.6324 464.935 57.7147 465.427C58.7969 465.82 59.8792 467.001 60.7647 468.772C60.9614 469.165 61.1582 469.559 61.2566 469.952C61.6501 470.838 61.9453 471.33 62.0437 471.526L63.2243 473.691L62.4372 474.085L61.5517 472.806L51.2212 478.217ZM54.2712 473.199L53.7792 472.314C53.3857 471.527 52.8938 471.035 52.2051 470.838C51.6147 470.641 50.8277 470.739 50.0406 471.231C49.2535 471.625 48.7615 472.117 48.6631 472.707C48.5648 473.297 48.6631 474.085 49.1551 475.068C49.3518 475.462 49.5486 475.855 49.8438 476.249L50.0406 476.544L54.6647 474.183C54.6647 473.986 54.4679 473.691 54.2712 473.199ZM59.8792 469.264C59.2889 468.181 58.6986 467.493 57.9115 467.198C57.2228 466.902 56.4356 467.001 55.5502 467.493C54.6647 467.886 54.1728 468.476 54.0744 469.067C53.8776 469.657 54.0744 470.543 54.5663 471.526C55.1566 472.609 55.5502 473.396 55.747 473.691L60.6663 471.133C60.6663 470.838 60.3711 470.247 59.8792 469.264Z" fill="black"/>
<path d="M37.5454 452.144L38.4309 451.751L39.3164 453.128L49.9421 448.406L49.4502 446.733L50.3356 446.34L52.5001 451.161L51.6146 451.554L50.8276 450.177L40.2019 454.899L42.6615 460.409L53.3856 455.686L52.8937 454.014L53.7791 453.62L55.8453 458.441L54.9598 458.835L54.1727 457.556L43.547 462.278L43.9405 463.852L43.0551 464.246L37.5454 452.144Z" fill="black"/>
<path d="M48.1712 442.995C47.9744 443.979 47.3841 444.962 46.5971 445.749C45.81 446.537 44.7277 447.225 43.3503 447.717C41.9729 448.209 40.6939 448.406 39.5132 448.307C38.3326 448.209 37.2504 447.816 36.3649 447.127C35.4794 446.438 34.7907 445.553 34.3972 444.47C33.7085 442.699 33.7085 441.027 34.4956 439.65C35.2826 438.272 36.6601 437.19 38.7262 436.403C40.1036 435.911 41.3826 435.714 42.5632 435.812C43.7439 435.911 44.8261 436.304 45.81 436.993C46.6954 437.682 47.3841 438.567 47.7777 439.65C48.2696 440.929 48.368 442.011 48.1712 442.995ZM37.8407 446.34C39.1197 446.635 40.5955 446.34 42.5632 445.651C44.3342 444.962 45.5148 444.175 46.3019 443.093C47.089 442.109 47.2857 441.027 46.7938 439.846C46.4003 438.764 45.5148 438.075 44.2358 437.78C42.9567 437.485 41.3826 437.78 39.5132 438.469C37.7423 439.158 36.4633 439.945 35.7746 441.027C34.9875 442.011 34.8891 443.093 35.381 444.274C35.7746 445.454 36.66 446.143 37.8407 446.34Z" fill="black"/>
<path d="M38.6277 430.204C40.3003 429.909 41.6777 429.811 42.6616 430.008C43.1535 430.106 43.547 430.303 43.8422 430.499C44.1373 430.795 44.3341 431.09 44.5309 431.483C44.7277 432.074 44.826 432.467 44.826 432.762L43.4486 433.353C43.3503 433.058 43.2519 432.664 43.0551 431.975C42.9567 431.779 42.8583 431.582 42.6616 431.483C42.4648 431.385 42.268 431.287 41.9728 431.188C40.3003 430.795 37.2503 431.287 32.9213 432.762L31.5439 433.254L32.0358 435.32L31.1504 435.616L27.7069 425.383L28.5923 425.088L29.3794 426.662L40.3987 422.924L40.0051 421.153L40.8906 420.858L42.7599 426.269L41.8745 426.564L41.0874 424.793L30.0681 428.433L31.2488 432.074L32.823 431.582C35.0858 430.991 36.9552 430.5 38.6277 430.204Z" fill="black"/>
<path d="M27.9037 421.743L28.1005 423.317L27.215 423.612L24.5585 414.463L27.3134 413.38L27.6085 414.364L26.0343 415.348L27.215 419.874L32.2327 418.398L31.3472 415.446L29.773 415.643L29.4779 414.659L33.6101 413.479L33.9052 414.463L32.4294 415.151L33.2165 418.201L38.5294 416.627L36.8568 411.609L34.2988 411.314V410.134L37.5455 409.74L40.3987 419.677L39.5132 419.972L38.9229 418.496L27.9037 421.743Z" fill="black"/>
<path d="M23.673 406.788L24.5585 409.838L28.4939 409.543L28.7891 410.724L23.8698 411.609L21.1149 400.295L25.9359 398.917L26.231 400.098L22.5907 401.672L23.2795 404.821L34.6922 401.967L34.2003 399.311L35.0858 399.114L36.7584 406.001L35.8729 406.198L35.0858 403.837L23.673 406.788Z" fill="black"/>
<path d="M27.1165 390.948L27.3133 391.834C27.6085 392.129 28.002 392.326 28.6907 392.522C29.281 392.719 30.0681 392.916 31.052 393.113C32.0359 393.31 32.7246 393.506 33.2165 393.605C33.7084 393.703 34.0036 393.9 34.0036 394.097L34.4955 396.556L33.61 396.753L33.3149 396.064C33.2165 395.868 33.0197 395.769 32.7246 395.572C32.331 395.474 31.8391 395.277 31.052 394.982C30.1665 394.785 29.4778 394.49 28.8875 394.293C28.2972 394.097 27.9036 393.801 27.6085 393.506C27.5101 394.392 27.2149 395.081 26.6246 395.769C26.0343 396.36 25.3456 396.753 24.3617 396.95C22.886 397.245 21.8037 397.048 21.0166 396.261C20.2295 395.474 19.7376 394.293 19.4424 392.719C19.3441 392.326 19.344 391.932 19.2457 391.342C19.1473 390.752 19.1473 390.26 19.0489 389.964L18.557 387.308L19.4424 387.111L19.9344 388.587L31.3472 386.324L31.1504 384.553L32.0359 384.356L33.1181 389.768L32.2326 389.964L31.7407 388.193L26.8214 389.177L27.1165 390.948ZM20.1311 391.047C20.1311 391.637 20.2295 392.129 20.3279 392.522C20.5247 393.506 20.8199 394.195 21.4102 394.589C22.0005 394.982 22.6892 395.081 23.7714 394.884C24.7553 394.687 25.444 394.293 25.9359 393.703C26.4279 393.113 26.4279 392.326 26.3295 391.342C26.1327 390.358 26.0343 389.768 25.8375 389.374L20.2295 390.456L20.1311 391.047Z" fill="black"/>
<path d="M18.2618 380.421L18.8522 383.569H22.7876L22.9844 384.75L17.9667 385.242L16.1957 373.731L21.115 372.747L21.3118 373.927L17.5732 375.108L17.9667 378.355L29.5762 376.584L29.3795 373.927L30.265 373.829L31.3472 380.913L30.4617 381.011L29.8714 378.65L18.2618 380.421Z" fill="black"/>
<path d="M28.2972 363.302C27.8053 364.286 27.0182 365.171 26.0343 365.761C25.0505 366.352 23.7715 366.745 22.3941 366.844C21.0167 366.942 19.7376 366.844 18.6554 366.352C17.5731 365.86 16.5893 365.171 15.9006 364.187C15.2119 363.203 14.8183 362.121 14.7199 360.842C14.6215 359.858 14.6215 358.678 14.8183 357.399L14.9167 356.808L18.2618 356.612L18.3602 357.891L15.999 358.579C15.9006 358.776 15.8022 359.071 15.7038 359.563C15.6054 359.957 15.6054 360.547 15.7038 361.137C15.8022 361.924 16.0974 362.613 16.5893 363.203C17.0812 363.794 17.7699 364.187 18.7538 364.482C19.6392 364.778 20.7215 364.778 22.0005 364.679C23.1812 364.581 24.165 364.286 25.1489 363.892C26.0343 363.499 26.8214 362.908 27.3134 362.22C27.8053 361.531 28.0021 360.744 27.9037 359.76C27.8053 359.071 27.7069 358.579 27.6085 358.284C27.5101 357.989 27.3133 357.694 27.0182 357.399L25.1489 356.808V355.628L27.8053 355.824C27.8053 356.12 28.0021 356.415 28.1988 356.907C28.3956 357.3 28.494 357.792 28.6908 358.186C28.8875 358.579 28.8875 359.071 28.9859 359.76C28.9859 361.039 28.7892 362.22 28.2972 363.302Z" fill="black"/>
<path d="M13.9329 349.233L14.8183 349.134L15.1135 350.905L24.4602 350.413L22.0989 349.036L15.2119 344.018H14.7199L14.6216 345.691L13.7361 345.789L13.4409 340.673L14.3264 340.575L14.6216 342.05L26.2311 341.46L26.3295 339.886H27.215L27.5101 345.1H26.6247L26.3295 343.428L16.7861 343.92L19.049 345.199L26.0343 350.315H26.7231L26.8214 348.544L27.7069 348.446L28.0021 353.66L27.1166 353.758L26.8214 352.184L15.2119 352.775L15.1135 354.25L14.228 354.349L13.9329 349.233Z" fill="black"/>
<path d="M13.2441 328.965L18.1634 328.768V330.047L14.4248 330.637L14.3264 334.77L26.1327 334.573L26.3295 331.326H27.2149L27.3133 338.607H26.4279L26.2311 336.541L14.6215 336.737L14.4248 338.705H13.5393L13.2441 328.965Z" fill="black"/>
<path d="M14.4248 325.718L14.1296 327.194H13.2441L13.4409 322.078H14.3264L14.5231 323.652L19.5408 323.849L19.7376 317.257L14.7199 317.06L14.4248 318.536H13.5393L13.736 313.519H14.6215L14.8183 314.994L26.4279 315.388L26.6246 313.912H27.5101L27.3133 318.93H26.4279L26.3295 317.356L20.9182 317.159L20.7215 323.751L26.1327 323.947L26.3295 322.373H27.2149L27.0182 327.489H26.1327L26.0343 326.014L14.4248 325.718Z" fill="black"/>
<path d="M14.0312 306.73L14.2279 304.664L27.4117 301.122L27.7068 299.941L28.5923 300.04L28.1987 304.959L27.3133 304.86L27.2149 303.286L24.3617 303.975L23.9682 309.386L26.6246 310.468L26.9197 308.894L27.8052 308.993L27.51 313.42L26.6246 313.322L26.5262 312.141L14.0312 306.73ZM17.1795 305.844L15.5069 306.139L17.1795 306.73L22.9843 309.091L23.3778 304.369L17.1795 305.844Z" fill="black"/>
<path d="M24.165 294.727C25.8376 295.218 27.1166 295.71 27.9037 296.301C28.2972 296.596 28.5924 296.989 28.7892 297.285C28.9859 297.678 28.9859 298.072 28.9859 298.465C28.8875 299.056 28.7891 299.449 28.6908 299.744L27.215 299.646C27.3134 299.351 27.3134 298.859 27.4118 298.268C27.4118 298.072 27.4117 297.777 27.3134 297.678C27.215 297.481 27.0182 297.285 26.8214 297.088C25.444 296.006 22.4924 295.12 17.9667 294.628L16.4909 294.431L15.999 296.498L15.1135 296.399L16.3925 285.675L17.278 285.773V287.544L28.7892 288.922L29.1827 287.151L30.0682 287.249L29.3795 292.956L28.494 292.857V290.889L16.9828 289.512L16.4909 293.251L18.1634 293.448C20.5247 293.939 22.4924 294.235 24.165 294.727Z" fill="black"/>
<path d="M22.9843 278.69C23.2795 277.214 23.7714 276.132 24.6569 275.443C25.5424 274.754 26.5262 274.557 27.8053 274.754C29.1827 275.049 30.2649 275.64 30.8552 276.722C31.4455 277.706 31.6423 278.985 31.3472 280.461C31.3472 280.657 31.2488 280.854 31.2488 281.051C31.1504 281.248 31.1504 281.444 31.052 281.74C30.8552 282.428 30.7568 283.019 30.6584 283.609L30.2649 286.069L29.3794 285.872L29.4778 284.298L17.9666 282.232L17.4747 283.707L16.5892 283.511L17.4747 278.296L18.3602 278.493L18.2618 280.362L22.4924 281.149L22.9843 278.69ZM19.6392 266.195L20.5247 266.391L20.4263 268.162L31.8391 270.228L32.331 268.556L33.2165 268.753L32.2326 274.164L31.3472 273.967L31.4455 272.196L20.0328 270.13L19.5408 271.803L18.6553 271.606L19.6392 266.195ZM30.1665 281.641C30.2649 281.444 30.2649 281.051 30.3633 280.657C30.5601 279.673 30.3633 278.788 29.8714 278.099C29.3794 277.411 28.5923 277.017 27.5101 276.82C26.5262 276.624 25.6407 276.82 25.0504 277.214C24.4601 277.706 24.0666 278.394 23.8698 279.378L23.5746 281.248L29.773 282.33C29.9697 282.133 30.0681 281.838 30.1665 281.641Z" fill="black"/>
<path d="M22.6892 258.029L22.0989 259.406L21.2134 259.209L22.4925 254.29L23.3779 254.487L23.1811 256.061L28.1005 257.241L29.6746 250.846L24.7553 249.666L24.165 251.043L23.2795 250.846L24.4602 246.025L25.3457 246.222L25.2473 247.698L36.5617 250.551L37.152 249.174L38.0375 249.371L36.8568 254.29L35.9713 254.093L36.1681 252.519L30.8553 251.24L29.2811 257.635L34.5939 258.914L35.1843 257.34L36.0697 257.537L34.7907 262.554L33.9052 262.357L34.102 260.882L22.6892 258.029Z" fill="black"/>
<path d="M26.4278 239.434L27.0181 237.466L40.6938 236.876L41.1857 235.793L42.0712 236.089L40.5954 240.811L39.7099 240.516L40.0051 238.942H37.0535L35.4793 244.156L37.8406 245.829L38.5293 244.353L39.4148 244.648L38.1357 248.879L37.2503 248.584L37.447 247.403L26.4278 239.434ZM29.5761 239.237H27.9036L29.3794 240.122L34.5938 243.664L35.9712 239.139L29.5761 239.237Z" fill="black"/>
<path d="M32.4294 224.872L31.5439 226.742L30.6585 226.447L32.4294 221.822L41.1858 222.314L43.6455 222.61L41.5793 221.232L34.5939 215.821L36.3649 211.197L37.2504 211.492L36.7584 213.46L48.1712 216.116L48.9583 214.64L49.8438 214.935L47.876 220.052L46.9906 219.756L47.3841 218.084L39.2181 215.919L35.6762 215.034L37.939 216.706L46.0067 223.101L45.6132 224.282L36.1681 223.987L32.4294 223.79L35.6762 225.364L43.2519 229.005L44.039 227.332L44.9245 227.627L43.2519 232.153L42.3664 231.858L42.76 230.284L32.4294 224.872Z" fill="black"/>
<path d="M39.1197 204.605L39.9067 202.736L53.5824 203.719L54.1727 202.736L55.0582 203.129L53.0905 207.655L52.205 207.261L52.6969 205.786L49.8437 205.49L47.6792 210.508L49.8437 212.377L50.6308 211L51.5163 211.394L49.7453 215.427L48.8599 215.034L49.155 213.853L39.1197 204.605ZM42.268 204.703L40.5955 204.507L41.9728 205.589L46.6954 209.721L48.5647 205.392L42.268 204.703Z" fill="black"/>
<path d="M44.5309 195.652L43.6454 196.833L42.7599 196.439L43.8422 194.176C44.039 193.783 44.2357 193.389 44.3341 192.996C44.6293 192.405 44.8261 191.815 45.1212 191.225C45.9083 189.65 46.7938 188.568 47.6793 188.175C48.5647 187.781 49.647 187.879 50.8276 188.47C51.7131 188.863 52.4018 189.454 52.8937 190.241C53.3857 191.028 53.5824 191.815 53.5824 192.7C53.5824 193.586 53.3857 194.57 52.8937 195.455C52.697 195.75 52.5986 196.144 52.4018 196.439C52.205 196.734 52.1066 196.931 52.1066 197.029L55.8453 198.8L57.1243 196.636L57.9114 197.029L55.255 202.539L54.4679 202.145L54.9598 200.67L44.5309 195.652ZM52.1066 195.062C52.5002 194.176 52.5986 193.291 52.3034 192.504C52.0083 191.717 51.3196 191.028 50.0405 190.339C49.0567 189.847 48.2696 189.749 47.5809 190.044C46.8922 190.339 46.4002 190.929 45.8099 192.012C45.6132 192.405 45.5148 192.799 45.318 193.192C45.2196 193.487 45.1212 193.586 45.1212 193.684L51.1228 196.537C51.4179 196.341 51.7131 195.849 52.1066 195.062Z" fill="black"/>
<path d="M61.2566 189.158C60.2727 189.749 59.1904 189.945 58.0098 189.945C56.8292 189.847 55.6486 189.552 54.3695 188.863C53.1889 188.174 52.2051 187.387 51.5164 186.305C50.8276 185.321 50.5325 184.141 50.4341 182.96C50.4341 181.779 50.6309 180.599 51.3196 179.517C51.8115 178.631 52.4018 177.746 53.3857 176.663L53.7792 176.171L56.6324 177.942L56.0421 179.025L53.6808 178.336C53.4841 178.434 53.1889 178.631 52.8937 178.926C52.5986 179.221 52.3034 179.713 52.0083 180.205C51.6147 180.894 51.5163 181.681 51.6147 182.37C51.7131 183.157 52.1066 183.846 52.697 184.633C53.2873 185.321 54.1728 186.01 55.255 186.6C56.2389 187.191 57.3211 187.486 58.305 187.683C59.2888 187.879 60.1743 187.781 60.9614 187.486C61.7485 187.191 62.3388 186.6 62.8308 185.813C63.1259 185.223 63.3227 184.731 63.421 184.436C63.5194 184.141 63.5194 183.747 63.421 183.452L62.142 181.878L62.8308 180.894L64.9952 182.566C64.8968 182.763 64.7985 183.157 64.7001 183.747C64.6017 184.239 64.5033 184.633 64.4049 185.026C64.3065 185.42 64.1098 185.912 63.8146 186.502C63.0275 187.683 62.142 188.568 61.2566 189.158Z" fill="black"/>
<path d="M64.3065 157.773L65.0936 158.265L64.3065 159.938L72.1774 165.054L71.0951 162.496L68.5371 154.428L68.1435 154.133L67.0613 155.412L66.2742 154.92L69.1274 150.591L69.9145 151.083L69.3242 152.46L79.0644 158.856L80.0483 157.675L80.8353 158.167L77.9822 162.496L77.195 162.004L77.9822 160.528L70.0129 155.314L71.0951 157.675L73.6532 165.939L74.2435 166.333L75.3257 164.955L76.1128 165.447L73.2596 169.875L72.4725 169.383L73.1612 168.005L63.421 161.61L62.4371 162.693L61.6501 162.201L64.3065 157.773Z" fill="black"/>
<path d="M71.5871 147.541C71.7839 147.049 71.9807 146.557 72.1774 146.164C72.3742 145.77 72.571 145.475 72.7677 145.18C73.6532 143.901 74.6371 143.114 75.5226 142.72C76.408 142.327 77.2935 142.524 78.179 143.114C78.9661 143.704 79.458 144.393 79.5564 145.278C79.6548 146.164 79.5564 146.951 79.1628 147.836C79.8515 146.951 80.6386 146.361 81.5241 146.262C82.4096 146.066 83.1967 146.262 83.9838 146.853C85.066 147.64 85.6563 148.624 85.7547 149.706C85.8531 150.788 85.3612 152.067 84.2789 153.543C83.8854 154.133 83.3935 154.625 82.9999 155.019C82.6064 155.412 82.2128 155.707 81.9177 155.904C81.6225 156.101 81.4257 156.199 81.4257 156.298L78.9661 154.133L79.5564 153.346L81.8193 154.33C82.4096 154.035 83.0983 153.444 83.6886 152.559C84.1805 151.87 84.3773 151.182 84.1805 150.591C83.9838 149.903 83.5902 149.312 82.7047 148.722C82.1144 148.23 81.4257 148.033 80.737 148.132C80.0483 148.23 79.3596 148.722 78.6709 149.607L77.8838 150.69L76.9984 150.099L77.5887 149.214C77.8838 148.82 78.0806 148.328 78.179 147.836C78.2774 147.345 78.2774 146.853 78.0806 146.361C77.8838 145.869 77.4903 145.475 76.9984 145.082C76.3097 144.59 75.7193 144.393 75.129 144.59C74.5387 144.786 74.0468 145.18 73.5548 145.77C73.2597 146.262 73.0629 146.656 72.8661 147.049C72.6694 147.443 72.7677 147.738 72.8661 147.935L74.0468 149.214L73.3581 150.198L70.8984 148.624C71.0952 148.427 71.292 148.033 71.5871 147.541Z" fill="black"/>
<path d="M81.9176 135.144L80.737 136.227L80.0483 135.636L81.6224 133.669C81.9176 133.373 82.2127 132.882 82.6063 132.39C82.9015 131.898 83.1966 131.504 83.3934 131.307C84.4756 129.93 85.4595 129.143 86.345 128.946C87.2305 128.749 88.1159 128.946 88.903 129.536C89.5917 130.127 89.9853 130.815 90.182 131.603C90.3788 132.39 90.182 133.177 89.7885 133.964C90.4772 132.98 91.3627 132.488 92.2481 132.291C93.1336 132.094 94.0191 132.39 94.7078 132.98C95.6917 133.767 96.1836 134.751 96.282 135.932C96.3804 137.112 95.6916 138.49 94.4126 140.162C94.1175 140.556 93.8223 140.851 93.5272 141.146C92.8385 141.835 92.5433 142.327 92.3465 142.425L90.7724 144.393L90.0836 143.802L90.8707 142.523L81.9176 135.144ZM87.7224 135.932L88.4111 135.144C89.0014 134.456 89.1982 133.767 89.0998 133.177C89.0014 132.586 88.6079 131.898 87.9192 131.307C87.2305 130.717 86.6401 130.52 86.0498 130.619C85.4595 130.717 84.7708 131.209 84.1805 131.996C83.8853 132.39 83.5902 132.685 83.3934 133.078L83.1966 133.373L87.2305 136.62C87.1321 136.62 87.4272 136.325 87.7224 135.932ZM93.6255 139.473C94.4126 138.49 94.8062 137.604 94.7078 136.817C94.6094 136.03 94.2159 135.341 93.5272 134.751C92.7401 134.161 92.0514 133.865 91.461 133.964C90.7723 134.062 90.182 134.554 89.4933 135.44C88.7062 136.423 88.2143 137.014 88.0175 137.309L92.3465 140.851C92.5433 140.752 92.9368 140.261 93.6255 139.473Z" fill="black"/>
<path d="M91.3627 121.862L92.7401 120.288L105.432 125.404L106.317 124.617L107.006 125.207L103.759 128.946L103.071 128.356L103.956 127.077L101.3 125.896L97.6594 130.028L99.1352 132.488L100.316 131.406L101.005 131.996L98.053 135.341L97.3643 134.751L97.9546 133.767L91.3627 121.862ZM94.4127 122.945L92.8385 122.256L93.8224 123.732L97.0691 129.143L100.217 125.601L94.4127 122.945Z" fill="black"/>
<path d="M108.679 122.453C107.596 122.748 106.514 122.65 105.334 122.354C104.251 121.961 103.169 121.272 102.087 120.288C101.103 119.304 100.414 118.222 100.021 117.14C99.6272 116.058 99.6271 114.779 99.9223 113.696C100.217 112.516 100.808 111.532 101.693 110.548C102.382 109.859 103.267 109.171 104.448 108.384L104.94 107.99L107.203 110.45L106.317 111.335L104.251 110.056C104.055 110.056 103.759 110.253 103.366 110.45C102.972 110.646 102.579 111.04 102.185 111.434C101.595 112.024 101.3 112.713 101.201 113.401C101.103 114.188 101.201 114.975 101.595 115.861C101.988 116.746 102.677 117.632 103.563 118.419C104.448 119.206 105.334 119.895 106.219 120.288C107.104 120.682 107.99 120.879 108.875 120.879C109.761 120.879 110.45 120.485 111.138 119.796C111.63 119.304 111.925 118.911 112.024 118.616C112.221 118.321 112.319 117.927 112.319 117.632L111.532 115.762L112.417 114.975L113.992 117.14C113.795 117.337 113.598 117.632 113.401 118.124C113.204 118.517 113.008 118.911 112.712 119.304C112.516 119.698 112.122 120.091 111.729 120.485C110.843 121.567 109.761 122.158 108.679 122.453Z" fill="black"/>
<path d="M113.5 102.775C113.303 101.693 113.303 100.611 113.598 99.6271C113.893 98.6433 114.385 97.8562 115.172 97.0691C116.058 96.1836 117.041 95.6917 118.025 95.4949C119.009 95.2981 120.091 95.3965 121.075 95.8885C122.059 96.3804 123.043 97.0691 124.027 97.9546C125.109 99.0368 125.798 100.217 126.191 101.398C126.585 102.579 126.683 103.661 126.388 104.743C126.093 105.825 125.601 106.711 124.814 107.498C123.928 108.384 122.945 108.875 121.862 109.072C120.878 109.269 119.796 109.171 118.812 108.777C117.829 108.383 116.746 107.695 115.861 106.711L113.696 108.777L117.435 112.712L118.714 111.729L119.304 112.417L115.566 115.959L114.975 115.271L115.959 114.09L107.99 105.629L106.711 106.514L106.022 105.825L109.662 102.382L110.351 103.071L109.367 104.251L112.811 107.892L115.074 105.825C114.287 104.94 113.795 103.956 113.5 102.775ZM114.877 101.103C115.074 102.382 115.861 103.759 117.337 105.235C118.616 106.514 119.796 107.4 121.075 107.695C122.354 107.99 123.338 107.793 124.322 106.908C125.207 106.121 125.503 105.038 125.207 103.858C124.912 102.677 124.125 101.3 122.748 99.8239C121.469 98.5449 120.288 97.6594 119.108 97.3643C117.927 97.0691 116.845 97.2659 115.959 98.053C115.074 98.84 114.68 99.8239 114.877 101.103Z" fill="black"/>
<path d="M132.291 92.8386C133.078 93.0354 134.062 93.3306 135.341 93.6257C136.227 93.9209 136.817 94.1177 137.309 94.2161C137.801 94.3144 137.998 94.3144 138.194 94.2161L138.883 93.9209L139.473 94.6096L137.703 96.0854C137.506 96.2822 137.112 96.2822 136.522 96.1838C135.932 96.0854 135.144 95.7902 134.062 95.3967C132.882 94.9048 131.898 94.6096 131.209 94.4128C130.52 94.2161 130.028 94.3144 129.733 94.5112L128.848 95.2983L132.291 99.3321L133.669 98.4466L134.259 99.1354L130.324 102.48L129.733 101.792L130.815 100.71L123.338 91.8548L122.059 92.6419L121.469 91.9532L125.306 88.7064L125.896 89.3951L124.814 90.5758L128.257 94.708L129.438 93.6257L128.848 87.0339L127.47 87.9193L126.88 87.2306L130.422 84.2791L131.012 84.9678L130.028 86.05L130.422 92.8386C130.815 92.7403 131.504 92.7403 132.291 92.8386Z" fill="black"/>
<path d="M141.638 92.15C140.556 92.2483 139.572 91.9532 138.588 91.3629C137.604 90.7725 136.62 89.9855 135.735 88.8048C134.849 87.6242 134.259 86.542 134.062 85.3613C133.865 84.1807 133.865 83.0984 134.259 82.0162C134.652 80.9339 135.341 80.0485 136.227 79.3598C137.801 78.1791 139.277 77.7856 140.851 78.0807C142.425 78.3759 143.901 79.4582 145.18 81.1307C146.065 82.3113 146.656 83.492 146.852 84.6726C147.049 85.8532 147.049 87.0339 146.656 88.1161C146.262 89.1984 145.573 90.0839 144.688 90.7726C143.704 91.658 142.72 92.0516 141.638 92.15ZM135.538 83.2952C135.636 84.5742 136.325 85.9516 137.506 87.6242C138.686 89.1 139.867 90.0839 141.048 90.4774C142.228 90.9693 143.31 90.7726 144.294 89.9855C145.278 89.2968 145.672 88.2145 145.573 86.9355C145.475 85.6565 144.786 84.1807 143.507 82.6065C142.327 81.1307 141.146 80.1468 139.965 79.7533C138.785 79.3598 137.702 79.4581 136.719 80.2452C135.833 81.0323 135.44 82.0162 135.538 83.2952Z" fill="black"/>
<path d="M144.589 74.7355L143.212 75.4242L142.72 74.6371L144.786 73.1613C145.18 72.9645 145.573 72.571 146.065 72.1774C146.557 71.7839 146.852 71.4887 147.148 71.3903C148.525 70.4065 149.706 69.9146 150.591 69.9146C151.477 69.9146 152.264 70.3081 152.854 71.1936C153.346 71.8823 153.641 72.6694 153.543 73.4564C153.444 74.2435 153.149 75.0306 152.559 75.6209C153.543 74.9322 154.428 74.6371 155.314 74.6371C156.199 74.6371 156.986 75.129 157.576 76.0145C158.265 76.9983 158.56 78.179 158.265 79.2612C157.97 80.4419 156.986 81.6225 155.314 82.8031C154.92 83.0983 154.625 83.2951 154.231 83.4918C153.444 83.9838 152.952 84.3773 152.756 84.4757L150.689 85.9515L150.198 85.2628L151.378 84.1805L144.589 74.7355ZM150.001 77.0967L150.886 76.5064C151.575 76.0145 151.968 75.4242 152.067 74.7355C152.165 74.0468 151.968 73.3581 151.378 72.6694C150.886 71.9807 150.296 71.5871 149.706 71.4887C149.115 71.3903 148.328 71.6855 147.443 72.2758C147.049 72.571 146.754 72.8661 146.36 73.1613L146.065 73.4564L149.115 77.6871C149.214 77.5887 149.509 77.3919 150.001 77.0967ZM154.625 82.1144C155.609 81.4257 156.199 80.6386 156.396 79.8515C156.593 79.0645 156.396 78.3758 155.806 77.4903C155.215 76.7032 154.625 76.3096 154.035 76.2113C153.346 76.1129 152.559 76.408 151.673 77.0967C150.591 77.7854 150.001 78.2774 149.706 78.4741L152.952 82.9999C153.247 83.0983 153.838 82.7047 154.625 82.1144Z" fill="black"/>
<path d="M168.497 57.6162L168.989 58.4033L167.809 59.4855L173.909 69.3242L175.483 68.5371L175.975 69.3242L171.547 72.079L171.055 71.2919L172.236 70.308L166.038 60.371L160.922 63.5194L167.12 73.4564L168.694 72.6693L169.186 73.4564L164.759 76.2112L164.267 75.4241L165.447 74.4402L159.347 64.6016L157.872 65.2903L157.38 64.5032L168.497 57.6162Z" fill="black"/>
<path d="M179.025 66.7663C177.942 66.6679 176.959 66.2743 176.073 65.5856C175.188 64.8969 174.401 63.9131 173.712 62.634C173.023 61.355 172.63 60.1744 172.531 58.8954C172.433 57.7147 172.728 56.6325 173.22 55.6486C173.712 54.6648 174.499 53.8777 175.581 53.2874C177.254 52.3035 178.828 52.1067 180.402 52.697C181.878 53.2874 183.157 54.468 184.239 56.4357C184.928 57.7147 185.321 58.9938 185.42 60.1744C185.518 61.4534 185.223 62.5357 184.633 63.5195C184.042 64.5034 183.255 65.2905 182.271 65.8808C181.091 66.5695 180.107 66.8646 179.025 66.7663ZM174.204 57.026C174.105 58.3051 174.597 59.7808 175.581 61.5518C176.467 63.2244 177.549 64.3066 178.631 64.8969C179.713 65.4872 180.894 65.4872 181.878 64.8969C182.96 64.3066 183.452 63.4211 183.55 62.0437C183.649 60.7647 183.157 59.1905 182.173 57.4196C181.288 55.747 180.205 54.6648 179.123 54.0745C178.041 53.4841 176.959 53.4841 175.876 54.0745C174.893 54.8615 174.302 55.8454 174.204 57.026Z" fill="black"/>
<path d="M190.437 55.55C191.028 57.2226 191.225 58.5016 191.126 59.5838C191.126 60.0758 190.929 60.5677 190.733 60.8628C190.536 61.158 190.241 61.4532 189.847 61.6499C189.355 61.9451 188.863 62.0435 188.667 62.1419L187.879 60.8628C188.175 60.7645 188.568 60.5677 189.158 60.2725C189.355 60.1741 189.552 60.0758 189.65 59.879C189.749 59.6822 189.847 59.4854 189.847 59.1903C190.044 57.4193 189.06 54.5661 186.994 50.4339L186.305 49.1549L184.239 49.942L183.846 49.1549L193.487 44.334L193.881 45.1211L192.405 46.1049L197.62 56.5339L199.391 55.8452L199.784 56.6322L194.668 59.1903L194.275 58.4032L195.947 57.3209L190.733 46.892L187.388 48.5646L188.175 50.0404C189.06 52.1065 189.847 53.9758 190.437 55.55Z" fill="black"/>
<path d="M197.226 43.7438L195.75 44.1373L195.357 43.2519L204.015 39.3164L205.491 41.8744L204.507 42.268L203.228 40.7922L198.997 42.5631L201.162 47.3841L204.015 46.0067L203.621 44.5309L204.605 44.1373L206.376 48.0728L205.392 48.4663L204.507 47.0889L201.653 48.3679L203.916 53.484L208.639 51.1227L208.54 48.5647L209.721 48.4663L210.607 51.6147L201.162 55.8453L200.768 55.0582L202.145 54.2711L197.226 43.7438Z" fill="black"/>
<path d="M211.492 37.4472L208.541 38.7262L209.426 42.5632L208.245 43.0552L206.671 38.3327L217.494 34.0037L219.56 38.5294L218.478 38.923L216.411 35.4795L213.361 36.5617L217.789 47.4826L220.347 46.6955L220.642 47.5809L214.05 50.2374L213.755 49.3519L215.919 48.2696L211.492 37.4472Z" fill="black"/>
<path d="M227.627 38.6277L226.742 38.9228C226.545 39.218 226.348 39.7099 226.25 40.3003C226.152 40.989 226.053 41.776 226.053 42.7599C225.955 43.7438 225.955 44.4325 225.856 44.9244C225.758 45.4163 225.66 45.7115 225.463 45.8099L223.102 46.6954L222.806 45.8099L223.397 45.4163C223.594 45.3179 223.692 45.1212 223.79 44.7276C223.889 44.3341 223.987 43.7438 224.085 42.9567C224.184 42.0712 224.381 41.2841 224.479 40.6938C224.676 40.1035 224.873 39.6116 225.168 39.3164C224.282 39.4148 223.495 39.218 222.806 38.7261C222.118 38.2341 221.626 37.5454 221.331 36.66C220.839 35.2826 220.937 34.1019 221.527 33.3148C222.216 32.4294 223.298 31.7407 224.873 31.2487C225.168 31.1503 225.66 30.9536 226.25 30.8552C226.84 30.6584 227.234 30.56 227.529 30.4616L230.087 29.5762L230.382 30.4616L229.005 31.1503L232.842 41.9728L234.514 41.5793L234.81 42.4647L229.595 44.3341L229.3 43.4486L230.973 42.6615L229.3 37.939L227.627 38.6277ZM226.545 31.6423C225.955 31.7407 225.561 31.9374 225.069 32.0358C224.184 32.331 223.495 32.8229 223.2 33.3148C222.806 33.9052 222.806 34.6922 223.2 35.6761C223.495 36.66 224.086 37.2503 224.676 37.6438C225.365 37.939 226.152 37.939 227.037 37.6438C228.021 37.3487 228.611 37.0535 228.906 36.9551L227.037 31.5439L226.545 31.6423Z" fill="black"/>
<path d="M236.777 28.3957L233.727 29.4779L234.219 33.4134L233.039 33.8069L231.858 28.8876L242.976 25.4441L244.648 30.1666L243.566 30.4618L241.795 26.9199L238.647 27.8054L242.09 39.1198L244.648 38.5294L244.943 39.4149L238.155 41.481L237.86 40.5956L240.122 39.7101L236.777 28.3957Z" fill="black"/>
<path d="M255.176 35.8729C254.093 35.4794 253.208 34.8891 252.421 34.0036C251.634 33.1181 251.142 31.9375 250.748 30.5601C250.453 29.1827 250.453 27.9036 250.748 26.723C251.043 25.5424 251.634 24.5585 252.519 23.7714C253.405 22.9843 254.388 22.394 255.667 22.0989C256.553 21.9021 257.734 21.7053 259.111 21.7053H259.701L260.292 25.0505L259.111 25.3456L258.127 23.1811C257.93 23.0827 257.635 22.9843 257.143 22.9843C256.651 22.9843 256.159 23.0827 255.569 23.1811C254.782 23.3779 254.192 23.7714 253.7 24.3617C253.208 24.9521 252.913 25.7392 252.716 26.6246C252.617 27.6085 252.618 28.5923 252.913 29.8714C253.208 31.052 253.601 32.0359 254.093 32.8229C254.585 33.61 255.274 34.2987 256.061 34.6923C256.848 35.0858 257.635 35.1842 258.521 34.9874C259.209 34.7907 259.603 34.6923 259.996 34.4955C260.292 34.2987 260.587 34.102 260.784 33.8068L261.079 31.8391L262.259 31.7407L262.456 34.3971C262.161 34.4955 261.866 34.6923 261.374 34.8891C260.98 35.0858 260.587 35.381 260.193 35.4794C259.8 35.6761 259.308 35.7745 258.717 35.9713C257.438 36.2665 256.258 36.2665 255.176 35.8729Z" fill="black"/>
<path d="M266.982 19.6391L267.179 20.5246L265.408 21.1149L267.179 30.3632L268.261 27.8052L272.295 20.3278L272.196 19.8359L270.524 19.9343L270.327 19.0488L275.345 18.0649L275.541 18.9504L274.164 19.4423L276.427 30.8551L278.001 30.7567L278.198 31.6422L273.082 32.6261L272.885 31.7406L274.459 31.2487L272.59 21.902L271.606 24.2633L267.474 31.839L267.572 32.5277L269.343 32.3309L269.54 33.2164L264.325 34.2003L264.129 33.3148L265.604 32.8229L263.342 21.4101L261.866 21.5085L261.669 20.623L266.982 19.6391Z" fill="black"/>
<path d="M287.053 16.1956L287.938 21.0165L286.659 21.2132L285.577 17.573L281.445 18.0649L283.216 29.7728L286.462 29.4777L286.561 30.3631L279.28 31.4454L279.182 30.5599L281.149 30.068L279.378 18.6552H277.411L277.312 17.7697L287.053 16.1956Z" fill="black"/>
<path d="M290.496 16.8845L289.02 16.7861L288.922 15.9006L293.94 15.3103L294.038 16.1958L292.464 16.5893L293.054 21.607L299.548 20.9183L298.957 15.9006L297.383 15.8022L297.285 14.9167L302.302 14.3264L302.401 15.2119L300.925 15.6054L302.204 27.1166H303.68L303.778 28.0021L298.76 28.5924L298.662 27.7069L300.138 27.3134L299.548 21.9021L293.054 22.5908L293.644 28.0021H295.317L295.415 28.8876L290.299 29.4779L290.201 28.5924L291.677 28.1989L290.496 16.8845Z" fill="black"/>
<path d="M309.189 13.9329L311.256 13.8345L316.568 26.4279L317.749 26.5263L317.847 27.4117L312.928 27.7069L312.83 26.8214L314.404 26.5263L313.322 23.7715L307.91 24.0666L307.222 26.9198L308.796 27.0182L308.894 27.9037L304.467 28.1988L304.368 27.3134L305.549 27.0182L309.189 13.9329ZM310.567 16.7861L309.977 15.2119L309.681 16.8844L308.206 22.9844L312.928 22.6892L310.567 16.7861Z" fill="black"/>
<path d="M322.472 22.1973C322.275 23.8698 321.881 25.2472 321.389 26.1327C321.094 26.6247 320.799 26.9198 320.504 27.1166C320.209 27.3134 319.815 27.4117 319.323 27.4117C318.733 27.4117 318.241 27.4117 317.946 27.3134L317.749 25.8376C318.044 25.8376 318.536 25.8376 319.126 25.8376C319.323 25.8376 319.52 25.7392 319.717 25.6408C319.914 25.5424 320.012 25.3456 320.209 25.0505C321.094 23.5747 321.586 20.5247 321.488 15.9006V14.4248H319.422V13.4409L330.244 13.2441V14.228L328.473 14.5232L328.67 26.1327L330.539 26.3295V27.215L324.734 27.3134V26.4279L326.702 26.2311L326.505 14.6215L322.668 14.7199V16.3925C322.767 18.4586 322.668 20.5247 322.472 22.1973Z" fill="black"/>
<path d="M338.213 18.8521C339.689 18.9505 340.87 19.3441 341.657 20.0328C342.444 20.7215 342.838 21.8037 342.739 23.0828C342.641 24.5585 342.149 25.6408 341.263 26.3295C340.279 27.1166 339.099 27.4117 337.623 27.4117C337.426 27.4117 337.23 27.4117 337.033 27.4117C336.836 27.4117 336.639 27.4117 336.344 27.3134C335.655 27.215 334.967 27.215 334.376 27.1166L331.818 27.0182V26.1327L333.392 26.0343L333.786 14.4248L332.31 14.1296V13.2441L337.623 13.4409V14.3264L335.754 14.5232L335.557 18.8521H338.213ZM336.246 26.3295C336.442 26.3295 336.836 26.4279 337.229 26.4279C338.312 26.4279 339.099 26.2311 339.689 25.6408C340.279 25.0505 340.575 24.2634 340.575 23.1811C340.575 22.0989 340.378 21.4102 339.788 20.8199C339.296 20.3279 338.509 20.0328 337.426 19.9344H335.557L335.36 26.2311C335.754 26.2311 336.049 26.3295 336.246 26.3295ZM350.118 13.8345V14.7199L348.347 14.9167L347.954 26.5263L349.725 26.8214V27.7069L344.215 27.5101V26.6247L345.986 26.5263L346.379 14.9167L344.608 14.6215V13.7361L350.118 13.8345Z" fill="black"/>
<path d="M358.579 15.7038L357.104 15.3103L357.202 14.4248L362.22 14.9167L362.121 15.8022L360.547 15.9006L360.055 20.9183L366.647 21.607L367.139 16.5893L365.663 16.1958L365.762 15.3103L370.779 15.8022L370.681 16.6877L369.205 16.7861L368.024 28.3956L369.5 28.6908L369.402 29.5763L364.384 29.0843L364.483 28.1989H366.057L366.647 22.7876L360.055 22.0989L359.465 27.5102L361.039 27.9037L360.941 28.7892L355.825 28.1989L355.923 27.3134H357.497L358.579 15.7038Z" fill="black"/>
<path d="M377.469 16.6877L379.535 16.9829L382.094 30.4618L383.176 30.8553L383.077 31.7408L378.158 30.9537L378.256 30.0683L379.831 30.1666L379.437 27.2151L374.026 26.428L372.747 28.986L374.321 29.3795L374.223 30.265L369.795 29.5763L369.894 28.6908H371.074L377.469 16.6877ZM378.256 19.8361L378.06 18.1635L377.371 19.7377L374.616 25.3457L379.339 26.0344L378.256 19.8361Z" fill="black"/>
<path d="M392.719 20.6233L390.752 19.9345L390.948 19.0491L395.769 20.1313L396.556 28.8877L396.655 31.3473L397.737 29.1828L402.066 21.5087L406.887 22.591L406.69 23.4764L404.624 23.2797L403.542 34.8892L405.116 35.4796L404.919 36.365L399.705 35.1844L399.901 34.2989L401.574 34.4957L402.558 26.1329L402.951 22.4926L401.574 24.9522L396.458 33.807L395.277 33.5118L394.293 24.0668L393.998 20.4265L392.916 23.87L390.358 31.9377L392.129 32.528L391.932 33.4134L387.21 32.3312L387.406 31.4457L388.981 31.6425L392.719 20.6233Z" fill="black"/>
<path d="M413.774 24.3618L415.742 24.9521L416.725 38.6278L417.808 39.0213L417.611 39.9068L412.888 38.6278L413.085 37.7423L414.659 37.9391L414.561 35.0859L409.346 33.6101L407.772 36.0698L409.248 36.6601L409.051 37.5456L404.821 36.3649L405.017 35.4794L406.198 35.5778L413.774 24.3618ZM414.167 27.5102V25.8376L413.282 27.3134L409.838 32.6262L414.463 33.9053L414.167 27.5102Z" fill="black"/>
<path d="M423.416 28.3955L422.137 27.7068L422.432 26.8213L424.793 27.6084C425.187 27.7068 425.679 27.9035 426.072 28.0019C426.761 28.1987 427.351 28.2971 427.941 28.4939C429.614 29.0842 430.795 29.7729 431.287 30.6583C431.778 31.5438 431.877 32.6261 431.483 33.8067C431.188 34.7906 430.696 35.4793 430.008 36.0696C429.319 36.6599 428.532 36.9551 427.646 37.0534C426.761 37.1518 425.777 37.0534 424.793 36.7583C424.399 36.6599 424.104 36.5615 423.711 36.3647C423.317 36.2664 423.12 36.168 423.022 36.0696L421.743 40.005L424.104 40.9889L423.809 41.8744L418.004 40.005L418.3 39.1196L419.874 39.4147L423.416 28.3955ZM425.088 35.8728C426.072 36.168 426.859 36.168 427.646 35.7744C428.433 35.3809 429.024 34.5938 429.417 33.2164C429.712 32.2325 429.712 31.347 429.319 30.7567C428.925 30.1664 428.237 29.6745 427.154 29.2809C426.761 29.1826 426.367 29.0842 425.875 28.9858C425.58 28.8874 425.383 28.8874 425.383 28.8874L423.317 35.1841C423.711 35.3809 424.203 35.5777 425.088 35.8728Z" fill="black"/>
<path d="M432.172 44.0388C431.483 43.1533 431.09 42.0711 430.992 40.9888C430.893 39.9066 431.09 38.5292 431.582 37.1518C432.074 35.8728 432.762 34.7905 433.648 34.0034C434.533 33.2163 435.616 32.7244 436.796 32.5276C437.977 32.3309 439.158 32.4292 440.338 32.9212C441.224 33.2163 442.306 33.8067 443.388 34.4954L443.978 34.7905L442.601 37.8405L441.42 37.4469L441.814 35.0857C441.716 34.8889 441.42 34.6921 441.125 34.397C440.83 34.1018 440.24 33.905 439.649 33.7083C438.862 33.4131 438.174 33.4131 437.387 33.6099C436.6 33.8067 435.911 34.2986 435.32 34.9873C434.73 35.676 434.14 36.6598 433.746 37.7421C433.353 38.8243 433.156 39.9066 433.058 40.8904C433.058 41.8743 433.156 42.7598 433.648 43.5469C434.14 44.334 434.73 44.8259 435.616 45.121C436.206 45.3178 436.698 45.5146 437.091 45.5146C437.485 45.5146 437.78 45.5146 438.075 45.4162L439.453 43.9404L440.535 44.5307L439.158 46.892C438.862 46.7936 438.469 46.7936 437.977 46.6952C437.485 46.6952 437.091 46.5968 436.599 46.5968C436.206 46.4985 435.714 46.4001 435.124 46.2033C433.943 45.613 432.861 44.9243 432.172 44.0388Z" fill="black"/>
<path d="M459.523 40.7922L459.13 41.6777L457.359 41.0873L453.522 49.6469L455.883 48.1711L463.459 44.4325L463.656 43.9405L462.278 43.0551L462.672 42.1696L467.394 44.3341L467.001 45.2196L465.525 44.826L460.704 55.4517L462.081 56.2388L461.688 57.0259L456.965 54.8614L457.359 54.0743L458.933 54.5662L462.869 45.9083L460.704 47.2857L452.932 51.1227L452.636 51.713L454.112 52.5985L453.719 53.3856L448.898 51.2211L449.291 50.434L450.767 50.9259L455.588 40.3003L454.309 39.5132L454.703 38.6277L459.523 40.7922Z" fill="black"/>
<path d="M470.838 46.4001C471.428 46.4985 471.822 46.6953 472.215 46.7937C472.609 46.8921 473.002 47.0888 473.297 47.1872C474.675 47.8759 475.659 48.663 476.151 49.5485C476.643 50.434 476.643 51.3194 476.151 52.2049C475.659 53.0904 475.068 53.6807 474.183 53.8775C473.396 54.1726 472.51 54.1726 471.625 53.8775C472.609 54.4678 473.297 55.1565 473.593 55.9436C473.888 56.7307 473.789 57.6161 473.396 58.4032C472.806 59.5839 471.92 60.371 470.838 60.5677C469.756 60.8629 468.477 60.5677 466.804 59.7806C466.115 59.4855 465.623 59.0919 465.131 58.6984C464.639 58.3048 464.344 58.0097 464.049 57.8129C463.852 57.6161 463.656 57.4194 463.557 57.321L465.328 54.5662L466.115 54.9597L465.525 57.321C465.919 57.9113 466.607 58.4032 467.493 58.8952C468.28 59.2887 468.87 59.3871 469.559 59.0919C470.149 58.7968 470.739 58.3048 471.133 57.4194C471.527 56.7307 471.527 56.042 471.428 55.3533C471.33 54.6646 470.641 54.0742 469.657 53.5823L468.477 52.992L468.968 52.1065L469.952 52.5985C470.444 52.7952 470.936 52.992 471.428 52.992C471.92 52.992 472.412 52.8936 472.904 52.5985C473.396 52.3033 473.691 51.9098 473.986 51.3194C474.38 50.5323 474.478 49.942 474.183 49.3517C473.986 48.7614 473.494 48.3678 472.707 47.9743C472.215 47.6791 471.822 47.5808 471.33 47.4824C470.936 47.384 470.641 47.4824 470.444 47.5808L469.362 48.9582L468.28 48.4662L469.46 45.8098C469.854 46.105 470.248 46.2034 470.838 46.4001Z" fill="black"/>
<path d="M484.612 54.7631L483.431 53.7793L483.923 52.9922L486.088 54.2712C486.481 54.468 486.973 54.7631 487.563 55.0583C488.154 55.3535 488.547 55.5502 488.744 55.6486C490.22 56.5341 491.204 57.3212 491.499 58.2067C491.892 58.9937 491.794 59.8792 491.302 60.7647C490.81 61.5518 490.22 62.0437 489.531 62.3389C488.842 62.634 487.957 62.634 487.072 62.3389C488.154 62.9292 488.842 63.6179 489.138 64.5034C489.433 65.3888 489.334 66.1759 488.842 67.0614C488.252 68.1436 487.268 68.8324 486.186 69.0291C485.005 69.2259 483.53 68.8324 481.759 67.8485C481.365 67.6517 480.972 67.3566 480.676 67.1598C479.889 66.6679 479.397 66.3727 479.201 66.2743L477.036 64.9953L477.528 64.2082L479.004 64.7985L484.612 54.7631ZM482.152 66.963C483.234 67.5533 484.12 67.8485 484.907 67.6517C485.694 67.4549 486.284 66.963 486.776 66.1759C487.268 65.3888 487.367 64.6018 487.17 64.0114C486.973 63.4211 486.383 62.8308 485.399 62.2405C484.317 61.6502 483.628 61.2566 483.333 61.0599L480.578 65.8808C480.676 66.0775 481.267 66.3727 482.152 66.963ZM484.809 60.5679L485.694 61.0599C486.481 61.4534 487.17 61.6502 487.76 61.4534C488.35 61.2566 488.941 60.7647 489.334 59.9776C489.728 59.1905 489.925 58.6002 489.728 58.0099C489.531 57.4196 488.941 56.8292 488.055 56.3373C487.662 56.1405 487.268 55.9438 486.776 55.747L486.383 55.5502L483.825 60.076C484.022 60.076 484.317 60.2728 484.809 60.5679Z" fill="black"/>
<path d="M499.271 61.9451L501.042 63.0273L497.992 76.3094L498.878 77.0965L498.386 77.8836L494.254 75.2272L494.746 74.4401L496.123 75.1288L496.91 72.2756L492.286 69.324L490.023 71.1934L491.302 72.1772L490.81 72.9643L487.072 70.603L487.563 69.816L488.646 70.3079L499.271 61.9451ZM498.583 65.0934L499.075 63.4209L497.796 64.6015L492.975 68.6353L497.009 71.1934L498.583 65.0934Z" fill="black"/>
<path d="M501.239 79.1628C500.747 78.0806 500.649 76.9983 500.846 75.8177C501.042 74.6371 501.534 73.4564 502.42 72.2758C503.207 71.0952 504.191 70.3081 505.273 69.7177C506.355 69.1274 507.536 68.9307 508.717 69.029C509.897 69.1274 510.979 69.521 512.062 70.3081C512.849 70.8984 513.734 71.6855 514.62 72.6693L515.013 73.1613L512.947 75.8177L511.963 75.129L512.947 72.8661C512.849 72.6693 512.75 72.3742 512.455 72.079C512.16 71.7839 511.766 71.3903 511.275 71.0951C510.586 70.6032 509.897 70.4064 509.11 70.4064C508.323 70.4064 507.536 70.7016 506.749 71.1935C505.962 71.6855 505.175 72.4726 504.486 73.4564C503.797 74.4403 503.305 75.4241 503.01 76.3096C502.715 77.2935 502.715 78.179 502.912 78.966C503.108 79.7531 503.6 80.4418 504.388 81.0321C504.978 81.4257 505.371 81.6225 505.765 81.7208C506.158 81.8192 506.454 81.9176 506.749 81.8192L508.421 80.737L509.307 81.5241L507.437 83.4918C507.241 83.3934 506.847 83.1966 506.355 82.9999C505.863 82.9015 505.47 82.7047 505.076 82.5079C504.683 82.3112 504.191 82.1144 503.699 81.7208C502.518 81.1305 501.731 80.2451 501.239 79.1628Z" fill="black"/>
<path d="M521.408 80.9337C522.49 80.5401 523.474 80.4417 524.458 80.5401C525.442 80.6385 526.426 81.1304 527.213 81.7207C528.197 82.5078 528.787 83.2949 529.181 84.2788C529.476 85.2626 529.574 86.2465 529.279 87.3288C528.984 88.411 528.492 89.4932 527.607 90.5755C526.721 91.7561 525.639 92.6416 524.557 93.2319C523.474 93.8222 522.392 94.019 521.211 93.9206C520.031 93.8222 519.145 93.4287 518.26 92.74C517.276 91.9529 516.587 91.0674 516.194 90.0836C515.8 89.0997 515.8 88.1158 515.997 87.0336C516.292 85.9514 516.784 84.8691 517.571 83.7869L515.21 81.9175L511.865 86.2465L513.045 87.4271L512.455 88.1158L508.421 84.9675L509.012 84.2788L510.389 85.0659L517.473 75.916L516.391 74.8337L516.981 74.0466L520.916 77.0966L520.326 77.8837L518.949 77.0966L515.899 81.032L518.26 82.9014C519.441 82.0159 520.424 81.4256 521.408 80.9337ZM523.376 82.0159C522.195 82.4094 520.916 83.3933 519.637 85.0659C518.555 86.5417 517.866 87.8207 517.768 89.0997C517.67 90.3787 518.063 91.3626 519.047 92.1497C520.031 92.8384 521.015 93.0351 522.195 92.5432C523.376 92.1497 524.557 91.0674 525.836 89.4933C526.918 88.0175 527.607 86.7384 527.705 85.4594C527.803 84.1804 527.41 83.1965 526.524 82.5078C525.639 81.8191 524.557 81.6224 523.376 82.0159Z" fill="black"/>
<path d="M534.198 97.9545C534.198 98.7416 534.002 99.8239 533.805 101.103C533.608 101.988 533.608 102.677 533.51 103.071C533.51 103.464 533.51 103.858 533.608 103.956L534.002 104.546L533.411 105.235L531.64 103.759C531.444 103.563 531.345 103.169 531.444 102.579C531.542 101.988 531.64 101.103 531.837 100.021C532.132 98.7416 532.231 97.7578 532.329 97.0691C532.428 96.3804 532.231 95.8884 532.034 95.5933L531.149 94.8062L527.705 98.84L528.787 100.119L528.197 100.808L524.36 97.4626L524.95 96.7739L526.229 97.6594L533.805 88.903L532.821 87.7224L533.411 87.0337L537.15 90.2804L536.56 90.9691L535.281 90.0837L531.739 94.1175L532.919 95.1997L539.315 93.6256L538.232 92.4449L538.823 91.7562L542.266 94.8062L541.676 95.4949L540.397 94.7078L533.805 96.1836C534.1 96.5771 534.198 97.1674 534.198 97.9545Z" fill="black"/>
<path d="M536.265 107.104C536.068 106.12 536.068 105.038 536.56 103.956C536.953 102.874 537.642 101.791 538.626 100.808C539.61 99.7253 540.692 99.0366 541.774 98.6431C542.955 98.2495 544.037 98.1511 545.119 98.3479C546.202 98.5447 547.185 99.0366 548.071 99.9221C549.448 101.299 550.137 102.677 550.039 104.349C549.94 105.924 549.153 107.498 547.677 109.072C546.693 110.154 545.611 110.843 544.431 111.335C543.25 111.728 542.168 111.827 540.987 111.63C539.905 111.433 538.921 110.843 538.035 110.056C537.052 109.072 536.56 108.088 536.265 107.104ZM544.135 99.6269C542.955 99.9221 541.577 100.808 540.2 102.283C538.921 103.661 538.134 104.94 537.937 106.219C537.642 107.498 538.035 108.482 538.921 109.367C539.806 110.154 540.889 110.449 542.069 110.154C543.348 109.859 544.627 108.974 546.005 107.498C547.284 106.12 548.071 104.841 548.268 103.562C548.464 102.382 548.169 101.299 547.284 100.414C546.398 99.6269 545.414 99.3318 544.135 99.6269Z" fill="black"/>
<path d="M553.974 107.4L553.088 106.121L553.777 105.432L555.548 107.203C555.843 107.498 556.237 107.892 556.729 108.285C557.221 108.679 557.516 108.974 557.713 109.171C558.893 110.45 559.582 111.433 559.68 112.417C559.779 113.401 559.484 114.09 558.795 114.877C558.205 115.467 557.417 115.861 556.63 115.959C555.843 116.058 555.056 115.861 554.269 115.27C555.155 116.156 555.548 116.943 555.647 117.927C555.745 118.812 555.351 119.599 554.663 120.288C553.777 121.174 552.695 121.567 551.514 121.469C550.334 121.37 549.055 120.583 547.579 119.108C547.284 118.812 546.989 118.419 546.693 118.124C546.005 117.435 545.611 116.943 545.513 116.845L543.742 115.074L544.431 114.483L545.611 115.467L553.974 107.4ZM548.169 118.419C549.055 119.304 549.842 119.796 550.629 119.796C551.416 119.796 552.105 119.501 552.793 118.812C553.482 118.124 553.777 117.435 553.777 116.845C553.777 116.254 553.384 115.467 552.597 114.68C551.711 113.795 551.121 113.204 550.924 113.008L546.89 116.845C547.087 117.238 547.48 117.73 548.169 118.419ZM552.498 113.008L553.187 113.795C553.777 114.385 554.466 114.68 555.056 114.68C555.745 114.68 556.335 114.385 557.024 113.696C557.614 113.106 557.909 112.516 557.909 111.925C557.909 111.335 557.516 110.646 556.729 109.859C556.434 109.564 556.04 109.269 555.745 108.875L555.45 108.58L551.711 112.221C551.908 112.417 552.105 112.614 552.498 113.008Z" fill="black"/>
<path d="M574.635 128.257L573.946 128.848L572.766 127.765L564.009 135.341L564.993 136.817L564.305 137.407L560.861 133.373L561.55 132.783L562.73 133.865L571.585 126.29L567.65 121.764L558.795 129.438L559.779 130.914L559.09 131.504L555.647 127.569L556.335 126.978L557.418 127.962L566.174 120.386L565.288 119.009L565.977 118.419L574.635 128.257Z" fill="black"/>
<path d="M567.158 140.162C567.059 139.08 567.355 138.096 567.846 137.112C568.437 136.128 569.224 135.145 570.306 134.259C571.388 133.374 572.569 132.783 573.75 132.587C574.93 132.39 576.013 132.39 577.095 132.783C578.177 133.177 579.062 133.866 579.751 134.751C580.932 136.325 581.424 137.801 581.03 139.375C580.735 140.949 579.653 142.425 577.98 143.704C576.8 144.59 575.619 145.18 574.438 145.377C573.258 145.573 572.077 145.573 570.995 145.18C569.913 144.786 569.027 144.098 568.24 143.212C567.65 142.228 567.158 141.146 567.158 140.162ZM576.013 133.964C574.733 134.062 573.356 134.751 571.684 136.03C570.208 137.211 569.224 138.391 568.83 139.572C568.437 140.753 568.535 141.835 569.322 142.819C570.109 143.803 571.093 144.196 572.372 144.098C573.651 143.999 575.127 143.311 576.701 142.032C578.177 140.851 579.161 139.67 579.554 138.49C579.948 137.309 579.751 136.227 579.063 135.243C578.275 134.259 577.292 133.866 576.013 133.964Z" fill="black"/>
<path d="M579.948 149.607C578.374 150.394 577.095 150.886 576.111 150.985C575.619 150.985 575.127 150.985 574.832 150.788C574.438 150.591 574.143 150.394 573.848 150.001C573.454 149.509 573.258 149.115 573.159 148.82L574.34 147.836C574.438 148.131 574.733 148.525 575.127 149.017C575.225 149.214 575.422 149.312 575.619 149.41C575.816 149.509 576.012 149.509 576.308 149.509C578.079 149.41 580.833 148.033 584.474 145.377L585.654 144.491L584.572 142.622L585.359 142.031L591.656 150.788L590.869 151.378L589.688 150.099L580.243 156.888L581.129 158.462L580.341 158.954L576.996 154.231L577.783 153.739L579.062 155.215L588.508 148.427L586.343 145.377L584.966 146.36C583.195 147.836 581.522 148.82 579.948 149.607Z" fill="black"/>
<path d="M592.738 154.527L592.049 153.149L592.837 152.657L598.051 160.627L595.788 162.397L595.198 161.512L596.379 160.036L593.919 156.101L589.491 158.954L591.262 161.512L592.738 160.922L593.329 161.807L589.688 164.168L589.098 163.283L590.279 162.201L588.606 159.544L583.982 162.594L587.032 166.923L589.59 166.431L589.885 167.514L586.835 168.793L581.129 160.135L581.916 159.643L582.9 160.823L592.738 154.527Z" fill="black"/>
<path d="M601.199 167.612L599.428 164.956L595.69 166.431L595.099 165.349L599.527 163.086L605.528 173.122L601.298 175.876L600.707 174.893L603.757 172.334L602.183 169.481L592.049 175.483L593.23 177.844L592.443 178.336L588.803 172.236L589.59 171.744L590.967 173.712L601.199 167.612Z" fill="black"/>
<path d="M602.478 183.747L602.085 182.96C601.79 182.763 601.298 182.763 600.609 182.763C599.92 182.763 599.133 182.862 598.149 182.96C597.166 183.059 596.477 183.059 595.985 183.059C595.493 183.059 595.198 182.96 595.099 182.763L593.919 180.5L594.706 180.107L595.198 180.697C595.296 180.796 595.591 180.894 595.985 180.992C596.378 180.992 596.969 180.992 597.756 181.091C598.641 181.091 599.428 181.091 600.117 181.091C600.707 181.189 601.199 181.288 601.593 181.484C601.396 180.599 601.495 179.812 601.79 179.123C602.183 178.336 602.774 177.746 603.561 177.352C604.84 176.663 606.02 176.565 606.906 177.057C607.791 177.549 608.677 178.533 609.464 180.009C609.661 180.304 609.857 180.796 610.054 181.288C610.251 181.878 610.448 182.271 610.644 182.567L611.923 184.928L611.136 185.42L610.153 184.141L599.92 189.65L600.609 191.225L599.822 191.52L597.166 186.699L597.953 186.305L598.936 187.781L603.266 185.42L602.478 183.747ZM609.169 181.681C608.972 181.189 608.775 180.697 608.578 180.304C608.086 179.418 607.594 178.926 607.004 178.631C606.414 178.336 605.627 178.533 604.741 179.025C603.856 179.517 603.265 180.107 603.069 180.796C602.872 181.484 602.97 182.271 603.462 183.157C603.954 184.042 604.249 184.633 604.446 184.829L609.464 182.075L609.169 181.681Z" fill="black"/>
<path d="M613.99 191.224L612.514 188.371L608.677 189.552L608.185 188.47L612.809 186.6L617.925 197.029L613.498 199.391L613.006 198.308L616.252 196.045L614.973 193.094L604.348 198.21L605.332 200.67L604.544 201.063L601.396 194.668L602.183 194.274L603.462 196.341L613.99 191.224Z" fill="black"/>
<path d="M609.464 210.508C609.661 209.426 610.152 208.344 610.94 207.556C611.727 206.671 612.809 205.982 614.088 205.392C615.367 204.9 616.646 204.605 617.827 204.802C619.007 204.9 620.089 205.392 621.073 206.081C622.057 206.769 622.746 207.753 623.238 208.934C623.631 209.819 623.927 210.902 624.123 212.279L624.222 212.869L621.073 213.952L620.581 212.771L622.549 211.394C622.647 211.197 622.647 210.803 622.549 210.41C622.451 210.016 622.352 209.426 622.057 208.934C621.762 208.245 621.27 207.655 620.581 207.261C619.893 206.868 619.106 206.671 618.122 206.671C617.138 206.671 616.154 206.966 614.973 207.36C613.891 207.852 613.006 208.344 612.219 209.032C611.431 209.721 610.94 210.41 610.644 211.197C610.349 211.984 610.448 212.869 610.743 213.656C611.038 214.247 611.235 214.739 611.53 215.034C611.727 215.329 612.022 215.526 612.317 215.722H614.285L614.58 216.903L611.923 217.493C611.825 217.297 611.628 216.903 611.235 216.51C610.94 216.116 610.644 215.821 610.448 215.427C610.251 215.034 609.956 214.64 609.759 214.05C609.464 212.869 609.267 211.689 609.464 210.508Z" fill="black"/>
<path d="M627.37 219.756L626.485 220.052L625.599 218.379L616.745 221.626L619.401 222.314L627.469 225.069L627.96 224.873L627.567 223.2L628.452 222.905L630.223 227.726L629.338 228.021L628.649 226.742L617.728 230.776L618.122 232.35L617.236 232.645L615.465 227.726L616.351 227.431L617.138 228.906L626.091 225.66L623.533 225.069L615.367 222.216L614.777 222.413L615.17 224.085L614.285 224.381L612.514 219.461L613.399 219.166L614.088 220.544L625.009 216.51L624.714 215.034L625.599 214.739L627.37 219.756Z" fill="black"/>
<path d="M633.863 239.04L629.239 240.614L628.846 239.434L632.289 237.761L631.207 233.826L619.991 237.368L620.778 240.516L619.893 240.811L617.63 233.826L618.515 233.531L619.302 235.4L630.322 231.858L629.928 229.89L630.814 229.595L633.863 239.04Z" fill="black"/>
<path d="M633.667 242.484L633.47 241.008L634.355 240.811L635.634 245.731L634.749 245.927L634.159 244.452L629.338 245.731L631.01 252.126L635.831 250.847L635.634 249.371L636.52 249.174L637.799 253.995L636.914 254.192L636.323 252.814L625.107 255.864L625.304 257.34L624.418 257.537L623.139 252.716L624.025 252.519L624.615 253.995L629.83 252.618L628.157 246.223L622.943 247.6L623.139 249.174L622.254 249.371L620.877 244.452L621.762 244.255L622.352 245.632L633.667 242.484Z" fill="black"/>
<path d="M639.57 260.488L640.062 262.456L628.452 269.638L628.551 270.819L627.665 271.016L626.583 266.195L627.468 265.998L627.96 267.474L630.518 265.998L629.338 260.685L626.485 260.39L626.681 261.964L625.796 262.161L624.812 257.832L625.697 257.635L626.091 258.717L639.57 260.488ZM636.913 262.358L638.389 261.571L636.618 261.472L630.322 260.882L631.305 265.506L636.913 262.358Z" fill="black"/>
<path d="M633.47 274.951C631.699 274.951 630.42 274.853 629.436 274.459C628.944 274.262 628.551 274.066 628.354 273.77C628.059 273.475 627.96 273.082 627.862 272.688C627.764 272.098 627.665 271.704 627.764 271.409L629.239 271.016C629.239 271.311 629.338 271.803 629.436 272.393C629.436 272.59 629.534 272.787 629.731 272.983C629.83 273.18 630.026 273.279 630.322 273.377C631.896 274.066 635.044 273.967 639.471 273.18L640.947 272.885L640.75 270.72L641.636 270.524L643.505 281.149L642.62 281.346L642.128 279.674L630.715 281.641L630.813 283.511L629.928 283.707L628.944 278.001L629.83 277.804L630.322 279.674L641.734 277.706L641.046 273.967L639.373 274.262C637.11 274.656 635.142 274.853 633.47 274.951Z" fill="black"/>
<path d="M639.176 289.906C639.373 291.382 639.176 292.661 638.488 293.546C637.897 294.432 636.914 294.924 635.635 295.12C634.257 295.317 633.076 294.924 632.191 294.136C631.306 293.349 630.814 292.169 630.617 290.693C630.617 290.496 630.617 290.299 630.518 290.103C630.42 289.906 630.518 289.709 630.518 289.414C630.518 288.725 630.42 288.037 630.42 287.446L630.125 284.888L631.01 284.79L631.404 286.364L643.013 284.987L643.112 283.412L643.997 283.314L644.588 288.627L643.702 288.725L643.112 286.954L638.783 287.446L639.176 289.906ZM631.502 289.217C631.502 289.414 631.502 289.807 631.601 290.201C631.699 291.283 632.093 291.972 632.781 292.464C633.47 292.956 634.257 293.153 635.339 292.956C636.323 292.857 637.11 292.464 637.504 291.874C637.996 291.283 638.094 290.496 637.996 289.414L637.799 287.545L631.502 288.332C631.502 288.725 631.502 289.02 631.502 289.217ZM645.965 300.925L645.08 301.023L644.686 299.351L633.175 300.728V302.499L632.289 302.598L631.601 297.186L632.486 297.088L632.88 298.761L644.391 297.383V295.612L645.276 295.514L645.965 300.925Z" fill="black"/>
<path d="M645.375 309.583L645.572 308.107H646.457L646.654 313.223H645.768L645.473 311.649L640.455 311.846L640.751 318.438L645.768 318.241L645.965 316.765H646.851L647.047 321.783H646.162L645.867 320.307L634.257 320.897L634.159 322.373H633.273L633.077 317.355H633.962L634.257 318.831L639.668 318.536L639.373 311.944L633.962 312.239L633.864 313.912H632.978L632.781 308.796H633.667L633.962 310.272L645.375 309.583Z" fill="black"/>
<path d="M647.244 328.276V330.343L634.454 335.065L634.257 336.246H633.372L633.273 331.326H634.159L634.355 332.901L637.11 332.015L637.012 326.604L634.257 325.817L634.06 327.391H633.175L633.076 322.964H633.962L634.159 324.144L647.244 328.276ZM644.292 329.457L645.965 328.965L644.292 328.572L638.291 326.801L638.389 331.523L644.292 329.457Z" fill="black"/>
<path d="M645.768 344.117L646.162 342.05L647.047 342.149L646.752 347.068L638.192 349.134L635.831 349.626L638.192 350.315L646.457 353.463L646.162 358.383L645.276 358.284L645.178 356.218L633.47 357.005L633.175 358.579L632.289 358.481L632.584 353.07L633.47 353.168L633.568 354.841L642.03 354.546L645.67 354.349L643.013 353.365L633.47 349.626L633.568 348.446L642.718 345.986L646.359 345.1L642.718 344.51L634.355 343.231L634.06 345.1L633.175 345.002L633.47 340.181L634.355 340.28L634.454 341.854L645.768 344.117Z" fill="black"/>
<path d="M645.375 365.565L645.178 367.631L631.896 370.681L631.601 371.763L630.715 371.664L631.306 366.745L632.191 366.844V368.418L635.044 367.827L635.635 362.416L632.978 361.236L632.585 362.81L631.699 362.711L632.191 358.284L633.076 358.382L633.175 359.563L645.375 365.565ZM642.226 366.352L643.899 366.056L642.325 365.466L636.618 362.908L636.126 367.631L642.226 366.352Z" fill="black"/>
<path d="M642.817 375.6L643.309 374.223L644.194 374.321L643.801 376.781C643.702 377.273 643.702 377.666 643.604 378.06C643.505 378.748 643.505 379.339 643.407 379.929C643.112 381.7 642.62 382.881 641.833 383.569C641.046 384.16 640.062 384.455 638.684 384.258C637.701 384.061 636.914 383.766 636.225 383.176C635.536 382.585 635.143 381.897 634.847 381.011C634.552 380.126 634.552 379.142 634.749 378.158C634.847 377.765 634.847 377.469 634.946 377.076C635.044 376.682 635.044 376.485 635.143 376.387L631.109 375.797L630.518 378.256L629.633 378.158L630.617 372.156L631.502 372.255L631.404 373.829L642.817 375.6ZM635.733 378.355C635.536 379.339 635.733 380.126 636.225 380.913C636.717 381.7 637.602 382.093 638.98 382.29C640.062 382.487 640.849 382.29 641.341 381.897C641.931 381.405 642.226 380.618 642.423 379.535C642.522 379.142 642.522 378.748 642.522 378.256C642.522 377.961 642.522 377.765 642.522 377.666L635.93 376.682C635.93 376.977 635.831 377.568 635.733 378.355Z" fill="black"/>
<path d="M628.747 386.718C629.535 385.931 630.518 385.34 631.601 385.045C632.781 384.75 634.06 384.75 635.438 385.045C636.815 385.34 637.996 385.832 638.881 386.619C639.865 387.406 640.455 388.39 640.849 389.472C641.242 390.555 641.341 391.735 641.046 393.014C640.849 393.998 640.455 395.08 639.963 396.359L639.767 396.95L636.52 396.163L636.717 394.982H639.176C639.373 394.884 639.57 394.589 639.767 394.195C639.963 393.801 640.062 393.31 640.259 392.719C640.455 391.932 640.357 391.243 639.963 390.456C639.668 389.768 639.078 389.177 638.291 388.587C637.504 388.095 636.52 387.702 635.241 387.406C634.06 387.21 632.978 387.111 631.994 387.21C631.01 387.308 630.125 387.603 629.436 388.193C628.747 388.685 628.354 389.374 628.157 390.358C628.059 391.047 627.96 391.539 628.059 391.932C628.059 392.326 628.157 392.621 628.354 392.916L630.026 393.998L629.633 395.08L627.075 394.097C627.075 393.801 627.075 393.408 627.075 392.916C627.075 392.424 626.976 392.03 626.976 391.539C626.976 391.145 627.075 390.555 627.173 389.964C627.468 388.685 627.96 387.603 628.747 386.718Z" fill="black"/>
<path d="M636.225 413.184L635.339 412.888L635.634 411.019L626.583 408.559L628.354 410.626L633.273 417.611L633.765 417.709L634.454 416.135L635.339 416.43L633.962 421.35L633.076 421.054L633.273 419.579L622.057 416.529L621.467 418.005L620.581 417.808L621.959 412.79L622.844 412.987L622.549 414.659L631.699 417.217L629.928 415.348L625.009 408.264L624.32 408.068L623.631 409.74L622.746 409.543L624.123 404.427L625.009 404.624L624.812 406.198L636.028 409.248L636.618 407.871L637.504 408.166L636.225 413.184Z" fill="black"/>
<path d="M632.486 425.187C632.388 425.777 632.388 426.269 632.289 426.662C632.191 427.056 632.093 427.45 631.994 427.745C631.502 429.22 630.912 430.303 630.125 430.893C629.338 431.483 628.452 431.68 627.468 431.385C626.484 431.09 625.894 430.499 625.501 429.712C625.107 428.925 625.009 428.138 625.107 427.154C624.714 428.237 624.123 429.024 623.336 429.417C622.549 429.811 621.762 429.909 620.877 429.614C619.598 429.22 618.712 428.532 618.318 427.449C617.925 426.466 617.925 425.088 618.515 423.317C618.712 422.629 619.007 422.038 619.302 421.448C619.597 420.956 619.893 420.562 620.089 420.267C620.286 419.972 620.385 419.775 620.483 419.775L623.435 421.054L623.139 421.94L620.68 421.645C620.188 422.137 619.794 422.825 619.401 423.908C619.106 424.695 619.204 425.383 619.499 425.974C619.794 426.564 620.483 426.958 621.467 427.253C622.156 427.45 622.844 427.45 623.533 427.154C624.222 426.859 624.714 426.17 625.009 425.187L625.402 423.908L626.386 424.203L626.091 425.187C625.894 425.679 625.894 426.17 625.894 426.662C625.993 427.154 626.189 427.646 626.484 428.04C626.78 428.433 627.272 428.729 627.862 428.925C628.649 429.22 629.338 429.122 629.83 428.827C630.322 428.532 630.715 427.941 631.01 427.154C631.207 426.662 631.305 426.17 631.207 425.777C631.207 425.383 631.109 425.088 630.912 424.891L629.338 424.006L629.731 422.924L632.486 423.612C632.584 424.203 632.486 424.596 632.486 425.187Z" fill="black"/>
<path d="M626.386 440.24L627.173 438.862L628.059 439.158L627.173 441.519C626.977 441.912 626.878 442.404 626.682 443.093C626.485 443.683 626.386 444.077 626.288 444.372C625.698 445.946 625.009 447.028 624.222 447.52C623.435 448.012 622.549 448.111 621.664 447.717C620.877 447.422 620.188 446.93 619.794 446.143C619.401 445.454 619.303 444.667 619.401 443.782C619.007 444.864 618.417 445.651 617.63 446.143C616.843 446.537 615.957 446.635 615.072 446.241C613.891 445.749 613.104 444.962 612.711 443.88C612.317 442.798 612.416 441.224 613.203 439.354C613.399 438.961 613.498 438.567 613.695 438.174C614.088 437.288 614.285 436.698 614.383 436.6L615.269 434.238L616.154 434.533L615.761 436.009L626.386 440.24ZM613.891 439.65C613.399 440.83 613.399 441.814 613.596 442.503C613.793 443.191 614.482 443.782 615.367 444.077C616.253 444.47 617.04 444.47 617.63 444.175C618.22 443.88 618.712 443.191 619.106 442.208C619.598 441.027 619.795 440.24 619.893 439.945L614.678 437.977C614.58 438.075 614.285 438.666 613.891 439.65ZM620.582 441.224L620.188 442.208C619.893 442.995 619.893 443.683 620.188 444.274C620.483 444.864 621.074 445.356 621.861 445.651C622.648 445.946 623.336 445.946 623.927 445.749C624.419 445.454 624.911 444.864 625.304 443.782C625.501 443.388 625.599 442.896 625.698 442.503L625.796 442.109L620.975 440.24C620.975 440.437 620.778 440.732 620.582 441.224Z" fill="black"/>
<path d="M621.467 455.785L620.68 457.654L607.004 456.67L606.414 457.654L605.528 457.26L607.496 452.735L608.382 453.128L607.89 454.604L610.743 454.899L612.907 449.881L610.743 448.012L609.956 449.39L609.07 448.996L610.841 444.962L611.727 445.356L611.431 446.536L621.467 455.785ZM618.22 455.588L619.893 455.785L618.515 454.702L613.793 450.57L611.923 454.899L618.22 455.588Z" fill="black"/>
<path d="M604.741 460.409C605.725 459.819 606.807 459.523 607.988 459.523C609.169 459.523 610.448 459.917 611.727 460.507C613.006 461.098 613.99 461.885 614.678 462.869C615.367 463.852 615.76 464.935 615.859 466.115C615.957 467.296 615.662 468.477 615.17 469.559C614.777 470.444 614.088 471.428 613.301 472.51L612.907 473.002L609.956 471.33L610.546 470.247L612.907 470.838C613.104 470.739 613.399 470.543 613.694 470.149C613.99 469.854 614.285 469.362 614.482 468.772C614.875 468.083 614.973 467.296 614.777 466.509C614.678 465.722 614.285 465.033 613.596 464.344C612.907 463.656 612.12 462.967 610.94 462.475C609.857 461.983 608.873 461.59 607.89 461.491C606.906 461.393 606.02 461.491 605.233 461.786C604.446 462.081 603.856 462.672 603.462 463.557C603.167 464.148 602.97 464.639 602.97 465.033C602.872 465.427 602.97 465.722 602.97 466.017L604.249 467.493L603.561 468.477L601.396 466.902C601.495 466.706 601.593 466.312 601.691 465.722C601.79 465.23 601.888 464.836 601.986 464.443C602.085 464.049 602.282 463.557 602.577 462.967C602.97 461.983 603.757 460.999 604.741 460.409Z" fill="black"/>
<path d="M606.119 480.676C606.709 481.66 607.004 482.644 607.004 483.628C607.004 484.612 606.807 485.596 606.217 486.481C605.627 487.563 604.84 488.351 603.954 488.842C603.069 489.334 601.986 489.531 600.904 489.433C599.822 489.334 598.641 488.941 597.461 488.351C596.182 487.662 595.099 486.776 594.411 485.694C593.722 484.71 593.23 483.628 593.23 482.546C593.132 481.463 593.427 480.381 593.919 479.397C594.509 478.315 595.296 477.528 596.182 476.938C597.067 476.446 598.149 476.249 599.232 476.347C600.314 476.446 601.494 476.839 602.675 477.43L604.151 474.773L599.33 472.117L598.346 473.396L597.559 472.904L600.019 468.378L600.806 468.772L600.215 470.247L610.349 475.855L611.235 474.675L612.022 475.167L609.562 479.594L608.775 479.102L609.365 477.626L604.938 475.167L603.462 477.823C604.741 478.807 605.528 479.693 606.119 480.676ZM605.43 482.644C604.84 481.562 603.659 480.48 601.888 479.496C600.314 478.61 598.838 478.217 597.559 478.315C596.28 478.414 595.296 479.004 594.706 480.086C594.116 481.168 594.116 482.152 594.706 483.234C595.296 484.317 596.477 485.399 598.346 486.383C599.92 487.268 601.298 487.662 602.577 487.662C603.856 487.662 604.741 487.071 605.332 485.989C605.922 484.907 605.922 483.825 605.43 482.644Z" fill="black"/>
<path d="M591.262 495.828C590.475 495.926 589.393 495.926 588.114 495.926C587.229 495.926 586.54 495.926 586.048 495.926C585.654 495.926 585.359 496.025 585.162 496.221L584.572 496.713L583.785 496.221L584.966 494.254C585.162 494.057 585.458 493.86 586.146 493.86C586.737 493.86 587.622 493.86 588.803 493.86C590.082 493.959 591.066 493.959 591.853 493.86C592.541 493.86 593.033 493.663 593.23 493.27L593.82 492.286L589.295 489.433L588.212 490.712L587.425 490.22L590.18 485.891L590.967 486.383L590.278 487.76L600.117 493.959L601.101 492.778L601.888 493.27L599.232 497.5L598.445 497.008L599.035 495.533L594.509 492.679L593.624 494.057L596.182 500.157L597.166 498.976L597.953 499.468L595.493 503.404L594.706 502.912L595.296 501.534L592.837 495.238C592.738 495.533 592.049 495.729 591.262 495.828Z" fill="black"/>
<path d="M582.604 499.37C583.588 498.976 584.671 498.878 585.753 499.173C586.933 499.37 588.016 499.96 589.196 500.747C590.377 501.534 591.262 502.518 591.853 503.6C592.443 504.683 592.738 505.765 592.64 506.847C592.542 507.929 592.246 509.012 591.558 509.996C590.475 511.57 589.098 512.455 587.524 512.652C585.95 512.849 584.277 512.258 582.408 511.078C581.227 510.291 580.342 509.307 579.751 508.225C579.161 507.142 578.866 506.06 578.964 504.879C578.964 503.699 579.358 502.715 580.046 501.731C580.735 500.452 581.621 499.763 582.604 499.37ZM591.164 505.962C590.672 504.781 589.59 503.6 587.917 502.518C586.343 501.436 584.966 500.944 583.687 500.846C582.408 500.747 581.424 501.239 580.735 502.223C580.046 503.207 579.948 504.289 580.44 505.47C580.932 506.65 582.014 507.831 583.687 509.012C585.261 510.094 586.638 510.586 587.917 510.684C589.196 510.684 590.18 510.192 590.869 509.208C591.558 508.225 591.656 507.142 591.164 505.962Z" fill="black"/>
<path d="M585.064 516.784L586.146 515.702L586.933 516.292L585.458 518.26C585.162 518.555 584.867 519.047 584.572 519.637C584.277 520.129 583.982 520.523 583.785 520.72C582.703 522.097 581.817 522.884 580.932 523.179C580.046 523.474 579.161 523.278 578.374 522.687C577.685 522.195 577.193 521.507 576.996 520.72C576.8 519.933 576.898 519.145 577.291 518.358C576.603 519.342 575.816 519.933 574.93 520.129C574.045 520.326 573.159 520.129 572.372 519.539C571.388 518.752 570.798 517.768 570.7 516.587C570.601 515.407 571.192 513.931 572.372 512.357C572.667 511.963 572.963 511.668 573.159 511.373C573.75 510.586 574.143 510.192 574.242 509.996L575.717 508.028L576.406 508.618L575.619 509.996L585.064 516.784ZM573.258 512.849C572.471 513.833 572.175 514.718 572.274 515.505C572.372 516.292 572.766 516.981 573.553 517.571C574.34 518.162 575.029 518.358 575.717 518.26C576.406 518.162 576.996 517.67 577.685 516.784C578.472 515.8 578.964 515.112 579.062 514.816L574.635 511.471C574.242 511.471 573.848 511.963 573.258 512.849ZM579.259 516.194L578.669 516.981C578.177 517.67 577.98 518.358 578.079 519.047C578.177 519.736 578.571 520.326 579.358 520.818C580.046 521.31 580.735 521.507 581.325 521.408C581.916 521.31 582.506 520.818 583.195 519.933C583.49 519.539 583.687 519.145 583.982 518.752L584.179 518.457L580.046 515.308C579.751 515.505 579.554 515.8 579.259 516.194Z" fill="black"/>
<g style="mix-blend-mode:overlay">
<circle cx="63.4088" cy="172.067" r="2" transform="rotate(-15 63.4088 172.067)" fill="black"/>
</g>
<g style="mix-blend-mode:overlay">
<circle cx="447.491" cy="42.619" r="2" transform="rotate(-15 447.491 42.619)" fill="black"/>
</g>
</g>
</svg>
